%TF.GenerationSoftware,KiCad,Pcbnew,(5.1.8)-1*%
%TF.CreationDate,2021-01-29T01:54:29+01:00*%
%TF.ProjectId,Apple II Adapter,4170706c-6520-4494-9920-416461707465,rev?*%
%TF.SameCoordinates,Original*%
%TF.FileFunction,Legend,Bot*%
%TF.FilePolarity,Positive*%
%FSLAX46Y46*%
G04 Gerber Fmt 4.6, Leading zero omitted, Abs format (unit mm)*
G04 Created by KiCad (PCBNEW (5.1.8)-1) date 2021-01-29 01:54:29*
%MOMM*%
%LPD*%
G01*
G04 APERTURE LIST*
%ADD10C,0.150000*%
%ADD11C,0.120000*%
G04 APERTURE END LIST*
D10*
X198040000Y-109482380D02*
X198516190Y-109482380D01*
X198516190Y-108482380D01*
X197706666Y-109482380D02*
X197706666Y-108815714D01*
X197706666Y-108482380D02*
X197754285Y-108530000D01*
X197706666Y-108577619D01*
X197659047Y-108530000D01*
X197706666Y-108482380D01*
X197706666Y-108577619D01*
X196801904Y-109434761D02*
X196897142Y-109482380D01*
X197087619Y-109482380D01*
X197182857Y-109434761D01*
X197230476Y-109387142D01*
X197278095Y-109291904D01*
X197278095Y-109006190D01*
X197230476Y-108910952D01*
X197182857Y-108863333D01*
X197087619Y-108815714D01*
X196897142Y-108815714D01*
X196801904Y-108863333D01*
X195992380Y-109434761D02*
X196087619Y-109482380D01*
X196278095Y-109482380D01*
X196373333Y-109434761D01*
X196420952Y-109339523D01*
X196420952Y-108958571D01*
X196373333Y-108863333D01*
X196278095Y-108815714D01*
X196087619Y-108815714D01*
X195992380Y-108863333D01*
X195944761Y-108958571D01*
X195944761Y-109053809D01*
X196420952Y-109149047D01*
X195516190Y-108815714D02*
X195516190Y-109482380D01*
X195516190Y-108910952D02*
X195468571Y-108863333D01*
X195373333Y-108815714D01*
X195230476Y-108815714D01*
X195135238Y-108863333D01*
X195087619Y-108958571D01*
X195087619Y-109482380D01*
X194659047Y-109434761D02*
X194563809Y-109482380D01*
X194373333Y-109482380D01*
X194278095Y-109434761D01*
X194230476Y-109339523D01*
X194230476Y-109291904D01*
X194278095Y-109196666D01*
X194373333Y-109149047D01*
X194516190Y-109149047D01*
X194611428Y-109101428D01*
X194659047Y-109006190D01*
X194659047Y-108958571D01*
X194611428Y-108863333D01*
X194516190Y-108815714D01*
X194373333Y-108815714D01*
X194278095Y-108863333D01*
X193420952Y-109434761D02*
X193516190Y-109482380D01*
X193706666Y-109482380D01*
X193801904Y-109434761D01*
X193849523Y-109339523D01*
X193849523Y-108958571D01*
X193801904Y-108863333D01*
X193706666Y-108815714D01*
X193516190Y-108815714D01*
X193420952Y-108863333D01*
X193373333Y-108958571D01*
X193373333Y-109053809D01*
X193849523Y-109149047D01*
X192516190Y-109482380D02*
X192516190Y-108482380D01*
X192516190Y-109434761D02*
X192611428Y-109482380D01*
X192801904Y-109482380D01*
X192897142Y-109434761D01*
X192944761Y-109387142D01*
X192992380Y-109291904D01*
X192992380Y-109006190D01*
X192944761Y-108910952D01*
X192897142Y-108863333D01*
X192801904Y-108815714D01*
X192611428Y-108815714D01*
X192516190Y-108863333D01*
X190849523Y-108815714D02*
X190849523Y-109482380D01*
X191278095Y-108815714D02*
X191278095Y-109339523D01*
X191230476Y-109434761D01*
X191135238Y-109482380D01*
X190992380Y-109482380D01*
X190897142Y-109434761D01*
X190849523Y-109387142D01*
X190373333Y-108815714D02*
X190373333Y-109482380D01*
X190373333Y-108910952D02*
X190325714Y-108863333D01*
X190230476Y-108815714D01*
X190087619Y-108815714D01*
X189992380Y-108863333D01*
X189944761Y-108958571D01*
X189944761Y-109482380D01*
X189040000Y-109482380D02*
X189040000Y-108482380D01*
X189040000Y-109434761D02*
X189135238Y-109482380D01*
X189325714Y-109482380D01*
X189420952Y-109434761D01*
X189468571Y-109387142D01*
X189516190Y-109291904D01*
X189516190Y-109006190D01*
X189468571Y-108910952D01*
X189420952Y-108863333D01*
X189325714Y-108815714D01*
X189135238Y-108815714D01*
X189040000Y-108863333D01*
X188182857Y-109434761D02*
X188278095Y-109482380D01*
X188468571Y-109482380D01*
X188563809Y-109434761D01*
X188611428Y-109339523D01*
X188611428Y-108958571D01*
X188563809Y-108863333D01*
X188468571Y-108815714D01*
X188278095Y-108815714D01*
X188182857Y-108863333D01*
X188135238Y-108958571D01*
X188135238Y-109053809D01*
X188611428Y-109149047D01*
X187706666Y-109482380D02*
X187706666Y-108815714D01*
X187706666Y-109006190D02*
X187659047Y-108910952D01*
X187611428Y-108863333D01*
X187516190Y-108815714D01*
X187420952Y-108815714D01*
X197992380Y-111037142D02*
X198040000Y-111084761D01*
X198182857Y-111132380D01*
X198278095Y-111132380D01*
X198420952Y-111084761D01*
X198516190Y-110989523D01*
X198563809Y-110894285D01*
X198611428Y-110703809D01*
X198611428Y-110560952D01*
X198563809Y-110370476D01*
X198516190Y-110275238D01*
X198420952Y-110180000D01*
X198278095Y-110132380D01*
X198182857Y-110132380D01*
X198040000Y-110180000D01*
X197992380Y-110227619D01*
X197563809Y-110608571D02*
X197230476Y-110608571D01*
X197087619Y-111132380D02*
X197563809Y-111132380D01*
X197563809Y-110132380D01*
X197087619Y-110132380D01*
X196087619Y-111132380D02*
X196420952Y-110656190D01*
X196659047Y-111132380D02*
X196659047Y-110132380D01*
X196278095Y-110132380D01*
X196182857Y-110180000D01*
X196135238Y-110227619D01*
X196087619Y-110322857D01*
X196087619Y-110465714D01*
X196135238Y-110560952D01*
X196182857Y-110608571D01*
X196278095Y-110656190D01*
X196659047Y-110656190D01*
X195659047Y-111132380D02*
X195659047Y-110132380D01*
X195087619Y-111132380D01*
X195087619Y-110132380D01*
X193659047Y-110132380D02*
X193468571Y-110132380D01*
X193373333Y-110180000D01*
X193278095Y-110275238D01*
X193230476Y-110465714D01*
X193230476Y-110799047D01*
X193278095Y-110989523D01*
X193373333Y-111084761D01*
X193468571Y-111132380D01*
X193659047Y-111132380D01*
X193754285Y-111084761D01*
X193849523Y-110989523D01*
X193897142Y-110799047D01*
X193897142Y-110465714D01*
X193849523Y-110275238D01*
X193754285Y-110180000D01*
X193659047Y-110132380D01*
X192801904Y-111132380D02*
X192801904Y-110132380D01*
X192801904Y-110608571D02*
X192230476Y-110608571D01*
X192230476Y-111132380D02*
X192230476Y-110132380D01*
X191278095Y-111132380D02*
X191754285Y-111132380D01*
X191754285Y-110132380D01*
X190278095Y-110465714D02*
X190040000Y-111132380D01*
X189801904Y-110465714D01*
X188897142Y-111132380D02*
X189468571Y-111132380D01*
X189182857Y-111132380D02*
X189182857Y-110132380D01*
X189278095Y-110275238D01*
X189373333Y-110370476D01*
X189468571Y-110418095D01*
X188468571Y-111037142D02*
X188420952Y-111084761D01*
X188468571Y-111132380D01*
X188516190Y-111084761D01*
X188468571Y-111037142D01*
X188468571Y-111132380D01*
X188040000Y-110227619D02*
X187992380Y-110180000D01*
X187897142Y-110132380D01*
X187659047Y-110132380D01*
X187563809Y-110180000D01*
X187516190Y-110227619D01*
X187468571Y-110322857D01*
X187468571Y-110418095D01*
X187516190Y-110560952D01*
X188087619Y-111132380D01*
X187468571Y-111132380D01*
D11*
%TO.C,A1*%
X169815000Y-116145000D02*
X168565000Y-116145000D01*
X168565000Y-116145000D02*
X168565000Y-136585000D01*
X168565000Y-136585000D02*
X173065000Y-136585000D01*
X173065000Y-136585000D02*
X173065000Y-116145000D01*
X173065000Y-116145000D02*
X171815000Y-116145000D01*
X165565000Y-116085000D02*
X165565000Y-136645000D01*
X165565000Y-136645000D02*
X176065000Y-136645000D01*
X176065000Y-136645000D02*
X176065000Y-116085000D01*
X176065000Y-116085000D02*
X165565000Y-116085000D01*
X171815000Y-116145000D02*
G75*
G02*
X169815000Y-116145000I-1000000J0D01*
G01*
%TD*%
M02*
