%TF.GenerationSoftware,KiCad,Pcbnew,(5.1.8)-1*%
%TF.CreationDate,2021-01-10T02:15:11+01:00*%
%TF.ProjectId,Apple II Adapter,4170706c-6520-4494-9920-416461707465,rev?*%
%TF.SameCoordinates,Original*%
%TF.FileFunction,Legend,Top*%
%TF.FilePolarity,Positive*%
%FSLAX46Y46*%
G04 Gerber Fmt 4.6, Leading zero omitted, Abs format (unit mm)*
G04 Created by KiCad (PCBNEW (5.1.8)-1) date 2021-01-10 02:15:11*
%MOMM*%
%LPD*%
G01*
G04 APERTURE LIST*
%ADD10C,0.150000*%
%ADD11C,0.120000*%
%ADD12C,0.100000*%
G04 APERTURE END LIST*
D10*
X205121190Y-109672380D02*
X205121190Y-108672380D01*
X205502142Y-108672380D01*
X205597380Y-108720000D01*
X205645000Y-108767619D01*
X205692619Y-108862857D01*
X205692619Y-109005714D01*
X205645000Y-109100952D01*
X205597380Y-109148571D01*
X205502142Y-109196190D01*
X205121190Y-109196190D01*
X206311666Y-108672380D02*
X206502142Y-108672380D01*
X206597380Y-108720000D01*
X206692619Y-108815238D01*
X206740238Y-109005714D01*
X206740238Y-109339047D01*
X206692619Y-109529523D01*
X206597380Y-109624761D01*
X206502142Y-109672380D01*
X206311666Y-109672380D01*
X206216428Y-109624761D01*
X206121190Y-109529523D01*
X206073571Y-109339047D01*
X206073571Y-109005714D01*
X206121190Y-108815238D01*
X206216428Y-108720000D01*
X206311666Y-108672380D01*
X207740238Y-109672380D02*
X207406904Y-109196190D01*
X207168809Y-109672380D02*
X207168809Y-108672380D01*
X207549761Y-108672380D01*
X207645000Y-108720000D01*
X207692619Y-108767619D01*
X207740238Y-108862857D01*
X207740238Y-109005714D01*
X207692619Y-109100952D01*
X207645000Y-109148571D01*
X207549761Y-109196190D01*
X207168809Y-109196190D01*
X208025952Y-108672380D02*
X208597380Y-108672380D01*
X208311666Y-109672380D02*
X208311666Y-108672380D01*
X209645000Y-108767619D02*
X209692619Y-108720000D01*
X209787857Y-108672380D01*
X210025952Y-108672380D01*
X210121190Y-108720000D01*
X210168809Y-108767619D01*
X210216428Y-108862857D01*
X210216428Y-108958095D01*
X210168809Y-109100952D01*
X209597380Y-109672380D01*
X210216428Y-109672380D01*
X175911190Y-109672380D02*
X175911190Y-108672380D01*
X176292142Y-108672380D01*
X176387380Y-108720000D01*
X176435000Y-108767619D01*
X176482619Y-108862857D01*
X176482619Y-109005714D01*
X176435000Y-109100952D01*
X176387380Y-109148571D01*
X176292142Y-109196190D01*
X175911190Y-109196190D01*
X177101666Y-108672380D02*
X177292142Y-108672380D01*
X177387380Y-108720000D01*
X177482619Y-108815238D01*
X177530238Y-109005714D01*
X177530238Y-109339047D01*
X177482619Y-109529523D01*
X177387380Y-109624761D01*
X177292142Y-109672380D01*
X177101666Y-109672380D01*
X177006428Y-109624761D01*
X176911190Y-109529523D01*
X176863571Y-109339047D01*
X176863571Y-109005714D01*
X176911190Y-108815238D01*
X177006428Y-108720000D01*
X177101666Y-108672380D01*
X178530238Y-109672380D02*
X178196904Y-109196190D01*
X177958809Y-109672380D02*
X177958809Y-108672380D01*
X178339761Y-108672380D01*
X178435000Y-108720000D01*
X178482619Y-108767619D01*
X178530238Y-108862857D01*
X178530238Y-109005714D01*
X178482619Y-109100952D01*
X178435000Y-109148571D01*
X178339761Y-109196190D01*
X177958809Y-109196190D01*
X178815952Y-108672380D02*
X179387380Y-108672380D01*
X179101666Y-109672380D02*
X179101666Y-108672380D01*
X181006428Y-109672380D02*
X180435000Y-109672380D01*
X180720714Y-109672380D02*
X180720714Y-108672380D01*
X180625476Y-108815238D01*
X180530238Y-108910476D01*
X180435000Y-108958095D01*
X191492380Y-99639380D02*
X191159047Y-99163190D01*
X190920952Y-99639380D02*
X190920952Y-98639380D01*
X191301904Y-98639380D01*
X191397142Y-98687000D01*
X191444761Y-98734619D01*
X191492380Y-98829857D01*
X191492380Y-98972714D01*
X191444761Y-99067952D01*
X191397142Y-99115571D01*
X191301904Y-99163190D01*
X190920952Y-99163190D01*
X192301904Y-99591761D02*
X192206666Y-99639380D01*
X192016190Y-99639380D01*
X191920952Y-99591761D01*
X191873333Y-99496523D01*
X191873333Y-99115571D01*
X191920952Y-99020333D01*
X192016190Y-98972714D01*
X192206666Y-98972714D01*
X192301904Y-99020333D01*
X192349523Y-99115571D01*
X192349523Y-99210809D01*
X191873333Y-99306047D01*
X192682857Y-98972714D02*
X192920952Y-99639380D01*
X193159047Y-98972714D01*
X193540000Y-99544142D02*
X193587619Y-99591761D01*
X193540000Y-99639380D01*
X193492380Y-99591761D01*
X193540000Y-99544142D01*
X193540000Y-99639380D01*
X194730476Y-99353666D02*
X195206666Y-99353666D01*
X194635238Y-99639380D02*
X194968571Y-98639380D01*
X195301904Y-99639380D01*
X184079238Y-137961714D02*
X184079238Y-138771238D01*
X184031619Y-138866476D01*
X183984000Y-138914095D01*
X183888761Y-138961714D01*
X183745904Y-138961714D01*
X183650666Y-138914095D01*
X184079238Y-138580761D02*
X183984000Y-138628380D01*
X183793523Y-138628380D01*
X183698285Y-138580761D01*
X183650666Y-138533142D01*
X183603047Y-138437904D01*
X183603047Y-138152190D01*
X183650666Y-138056952D01*
X183698285Y-138009333D01*
X183793523Y-137961714D01*
X183984000Y-137961714D01*
X184079238Y-138009333D01*
X184555428Y-138628380D02*
X184555428Y-137961714D01*
X184555428Y-137628380D02*
X184507809Y-137676000D01*
X184555428Y-137723619D01*
X184603047Y-137676000D01*
X184555428Y-137628380D01*
X184555428Y-137723619D01*
X184888761Y-137961714D02*
X185269714Y-137961714D01*
X185031619Y-137628380D02*
X185031619Y-138485523D01*
X185079238Y-138580761D01*
X185174476Y-138628380D01*
X185269714Y-138628380D01*
X185603047Y-138628380D02*
X185603047Y-137628380D01*
X186031619Y-138628380D02*
X186031619Y-138104571D01*
X185984000Y-138009333D01*
X185888761Y-137961714D01*
X185745904Y-137961714D01*
X185650666Y-138009333D01*
X185603047Y-138056952D01*
X186936380Y-137961714D02*
X186936380Y-138628380D01*
X186507809Y-137961714D02*
X186507809Y-138485523D01*
X186555428Y-138580761D01*
X186650666Y-138628380D01*
X186793523Y-138628380D01*
X186888761Y-138580761D01*
X186936380Y-138533142D01*
X187412571Y-138628380D02*
X187412571Y-137628380D01*
X187412571Y-138009333D02*
X187507809Y-137961714D01*
X187698285Y-137961714D01*
X187793523Y-138009333D01*
X187841142Y-138056952D01*
X187888761Y-138152190D01*
X187888761Y-138437904D01*
X187841142Y-138533142D01*
X187793523Y-138580761D01*
X187698285Y-138628380D01*
X187507809Y-138628380D01*
X187412571Y-138580761D01*
X188317333Y-138533142D02*
X188364952Y-138580761D01*
X188317333Y-138628380D01*
X188269714Y-138580761D01*
X188317333Y-138533142D01*
X188317333Y-138628380D01*
X189222095Y-138580761D02*
X189126857Y-138628380D01*
X188936380Y-138628380D01*
X188841142Y-138580761D01*
X188793523Y-138533142D01*
X188745904Y-138437904D01*
X188745904Y-138152190D01*
X188793523Y-138056952D01*
X188841142Y-138009333D01*
X188936380Y-137961714D01*
X189126857Y-137961714D01*
X189222095Y-138009333D01*
X189793523Y-138628380D02*
X189698285Y-138580761D01*
X189650666Y-138533142D01*
X189603047Y-138437904D01*
X189603047Y-138152190D01*
X189650666Y-138056952D01*
X189698285Y-138009333D01*
X189793523Y-137961714D01*
X189936380Y-137961714D01*
X190031619Y-138009333D01*
X190079238Y-138056952D01*
X190126857Y-138152190D01*
X190126857Y-138437904D01*
X190079238Y-138533142D01*
X190031619Y-138580761D01*
X189936380Y-138628380D01*
X189793523Y-138628380D01*
X190555428Y-138628380D02*
X190555428Y-137961714D01*
X190555428Y-138056952D02*
X190603047Y-138009333D01*
X190698285Y-137961714D01*
X190841142Y-137961714D01*
X190936380Y-138009333D01*
X190984000Y-138104571D01*
X190984000Y-138628380D01*
X190984000Y-138104571D02*
X191031619Y-138009333D01*
X191126857Y-137961714D01*
X191269714Y-137961714D01*
X191364952Y-138009333D01*
X191412571Y-138104571D01*
X191412571Y-138628380D01*
X192603047Y-137580761D02*
X191745904Y-138866476D01*
X192793523Y-137961714D02*
X193174476Y-137961714D01*
X192936380Y-137628380D02*
X192936380Y-138485523D01*
X192984000Y-138580761D01*
X193079238Y-138628380D01*
X193174476Y-138628380D01*
X193888761Y-138580761D02*
X193793523Y-138628380D01*
X193603047Y-138628380D01*
X193507809Y-138580761D01*
X193460190Y-138485523D01*
X193460190Y-138104571D01*
X193507809Y-138009333D01*
X193603047Y-137961714D01*
X193793523Y-137961714D01*
X193888761Y-138009333D01*
X193936380Y-138104571D01*
X193936380Y-138199809D01*
X193460190Y-138295047D01*
X194364952Y-138628380D02*
X194364952Y-137628380D01*
X194364952Y-138009333D02*
X194460190Y-137961714D01*
X194650666Y-137961714D01*
X194745904Y-138009333D01*
X194793523Y-138056952D01*
X194841142Y-138152190D01*
X194841142Y-138437904D01*
X194793523Y-138533142D01*
X194745904Y-138580761D01*
X194650666Y-138628380D01*
X194460190Y-138628380D01*
X194364952Y-138580761D01*
X195412571Y-138628380D02*
X195317333Y-138580761D01*
X195269714Y-138485523D01*
X195269714Y-137628380D01*
X162726666Y-134792619D02*
X162726666Y-134316428D01*
X163012380Y-134887857D02*
X162012380Y-134554523D01*
X163012380Y-134221190D01*
X162345714Y-134030714D02*
X162345714Y-133649761D01*
X162012380Y-133887857D02*
X162869523Y-133887857D01*
X162964761Y-133840238D01*
X163012380Y-133745000D01*
X163012380Y-133649761D01*
X163012380Y-132887857D02*
X162488571Y-132887857D01*
X162393333Y-132935476D01*
X162345714Y-133030714D01*
X162345714Y-133221190D01*
X162393333Y-133316428D01*
X162964761Y-132887857D02*
X163012380Y-132983095D01*
X163012380Y-133221190D01*
X162964761Y-133316428D01*
X162869523Y-133364047D01*
X162774285Y-133364047D01*
X162679047Y-133316428D01*
X162631428Y-133221190D01*
X162631428Y-132983095D01*
X162583809Y-132887857D01*
X163012380Y-132411666D02*
X162345714Y-132411666D01*
X162536190Y-132411666D02*
X162440952Y-132364047D01*
X162393333Y-132316428D01*
X162345714Y-132221190D01*
X162345714Y-132125952D01*
X163012380Y-131792619D02*
X162345714Y-131792619D01*
X162012380Y-131792619D02*
X162060000Y-131840238D01*
X162107619Y-131792619D01*
X162060000Y-131745000D01*
X162012380Y-131792619D01*
X162107619Y-131792619D01*
X162012380Y-130268809D02*
X162726666Y-130268809D01*
X162869523Y-130316428D01*
X162964761Y-130411666D01*
X163012380Y-130554523D01*
X163012380Y-130649761D01*
X163012380Y-129649761D02*
X162964761Y-129745000D01*
X162917142Y-129792619D01*
X162821904Y-129840238D01*
X162536190Y-129840238D01*
X162440952Y-129792619D01*
X162393333Y-129745000D01*
X162345714Y-129649761D01*
X162345714Y-129506904D01*
X162393333Y-129411666D01*
X162440952Y-129364047D01*
X162536190Y-129316428D01*
X162821904Y-129316428D01*
X162917142Y-129364047D01*
X162964761Y-129411666D01*
X163012380Y-129506904D01*
X163012380Y-129649761D01*
X162345714Y-128983095D02*
X163012380Y-128745000D01*
X162345714Y-128506904D02*
X163012380Y-128745000D01*
X163250476Y-128840238D01*
X163298095Y-128887857D01*
X163345714Y-128983095D01*
X162964761Y-128173571D02*
X163012380Y-128078333D01*
X163012380Y-127887857D01*
X162964761Y-127792619D01*
X162869523Y-127745000D01*
X162821904Y-127745000D01*
X162726666Y-127792619D01*
X162679047Y-127887857D01*
X162679047Y-128030714D01*
X162631428Y-128125952D01*
X162536190Y-128173571D01*
X162488571Y-128173571D01*
X162393333Y-128125952D01*
X162345714Y-128030714D01*
X162345714Y-127887857D01*
X162393333Y-127792619D01*
X162345714Y-127459285D02*
X162345714Y-127078333D01*
X162012380Y-127316428D02*
X162869523Y-127316428D01*
X162964761Y-127268809D01*
X163012380Y-127173571D01*
X163012380Y-127078333D01*
X163012380Y-126745000D02*
X162345714Y-126745000D01*
X162012380Y-126745000D02*
X162060000Y-126792619D01*
X162107619Y-126745000D01*
X162060000Y-126697380D01*
X162012380Y-126745000D01*
X162107619Y-126745000D01*
X162964761Y-125840238D02*
X163012380Y-125935476D01*
X163012380Y-126125952D01*
X162964761Y-126221190D01*
X162917142Y-126268809D01*
X162821904Y-126316428D01*
X162536190Y-126316428D01*
X162440952Y-126268809D01*
X162393333Y-126221190D01*
X162345714Y-126125952D01*
X162345714Y-125935476D01*
X162393333Y-125840238D01*
X163012380Y-125411666D02*
X162012380Y-125411666D01*
X162631428Y-125316428D02*
X163012380Y-125030714D01*
X162345714Y-125030714D02*
X162726666Y-125411666D01*
X162726666Y-123887857D02*
X162726666Y-123411666D01*
X163012380Y-123983095D02*
X162012380Y-123649761D01*
X163012380Y-123316428D01*
X163012380Y-122554523D02*
X162012380Y-122554523D01*
X162964761Y-122554523D02*
X163012380Y-122649761D01*
X163012380Y-122840238D01*
X162964761Y-122935476D01*
X162917142Y-122983095D01*
X162821904Y-123030714D01*
X162536190Y-123030714D01*
X162440952Y-122983095D01*
X162393333Y-122935476D01*
X162345714Y-122840238D01*
X162345714Y-122649761D01*
X162393333Y-122554523D01*
X163012380Y-121649761D02*
X162488571Y-121649761D01*
X162393333Y-121697380D01*
X162345714Y-121792619D01*
X162345714Y-121983095D01*
X162393333Y-122078333D01*
X162964761Y-121649761D02*
X163012380Y-121745000D01*
X163012380Y-121983095D01*
X162964761Y-122078333D01*
X162869523Y-122125952D01*
X162774285Y-122125952D01*
X162679047Y-122078333D01*
X162631428Y-121983095D01*
X162631428Y-121745000D01*
X162583809Y-121649761D01*
X162345714Y-121173571D02*
X163345714Y-121173571D01*
X162393333Y-121173571D02*
X162345714Y-121078333D01*
X162345714Y-120887857D01*
X162393333Y-120792619D01*
X162440952Y-120745000D01*
X162536190Y-120697380D01*
X162821904Y-120697380D01*
X162917142Y-120745000D01*
X162964761Y-120792619D01*
X163012380Y-120887857D01*
X163012380Y-121078333D01*
X162964761Y-121173571D01*
X162345714Y-120411666D02*
X162345714Y-120030714D01*
X162012380Y-120268809D02*
X162869523Y-120268809D01*
X162964761Y-120221190D01*
X163012380Y-120125952D01*
X163012380Y-120030714D01*
X162964761Y-119316428D02*
X163012380Y-119411666D01*
X163012380Y-119602142D01*
X162964761Y-119697380D01*
X162869523Y-119745000D01*
X162488571Y-119745000D01*
X162393333Y-119697380D01*
X162345714Y-119602142D01*
X162345714Y-119411666D01*
X162393333Y-119316428D01*
X162488571Y-119268809D01*
X162583809Y-119268809D01*
X162679047Y-119745000D01*
X163012380Y-118840238D02*
X162345714Y-118840238D01*
X162536190Y-118840238D02*
X162440952Y-118792619D01*
X162393333Y-118745000D01*
X162345714Y-118649761D01*
X162345714Y-118554523D01*
X163393333Y-117173571D02*
X163345714Y-117221190D01*
X163202857Y-117316428D01*
X163107619Y-117364047D01*
X162964761Y-117411666D01*
X162726666Y-117459285D01*
X162536190Y-117459285D01*
X162298095Y-117411666D01*
X162155238Y-117364047D01*
X162060000Y-117316428D01*
X161917142Y-117221190D01*
X161869523Y-117173571D01*
X162726666Y-116840238D02*
X162726666Y-116364047D01*
X163012380Y-116935476D02*
X162012380Y-116602142D01*
X163012380Y-116268809D01*
X162345714Y-115935476D02*
X163345714Y-115935476D01*
X162393333Y-115935476D02*
X162345714Y-115840238D01*
X162345714Y-115649761D01*
X162393333Y-115554523D01*
X162440952Y-115506904D01*
X162536190Y-115459285D01*
X162821904Y-115459285D01*
X162917142Y-115506904D01*
X162964761Y-115554523D01*
X163012380Y-115649761D01*
X163012380Y-115840238D01*
X162964761Y-115935476D01*
X162345714Y-115030714D02*
X163345714Y-115030714D01*
X162393333Y-115030714D02*
X162345714Y-114935476D01*
X162345714Y-114745000D01*
X162393333Y-114649761D01*
X162440952Y-114602142D01*
X162536190Y-114554523D01*
X162821904Y-114554523D01*
X162917142Y-114602142D01*
X162964761Y-114649761D01*
X163012380Y-114745000D01*
X163012380Y-114935476D01*
X162964761Y-115030714D01*
X163012380Y-113983095D02*
X162964761Y-114078333D01*
X162869523Y-114125952D01*
X162012380Y-114125952D01*
X162964761Y-113221190D02*
X163012380Y-113316428D01*
X163012380Y-113506904D01*
X162964761Y-113602142D01*
X162869523Y-113649761D01*
X162488571Y-113649761D01*
X162393333Y-113602142D01*
X162345714Y-113506904D01*
X162345714Y-113316428D01*
X162393333Y-113221190D01*
X162488571Y-113173571D01*
X162583809Y-113173571D01*
X162679047Y-113649761D01*
X163345714Y-112078333D02*
X163345714Y-111840238D01*
X161917142Y-111840238D01*
X161917142Y-112078333D01*
X163345714Y-111030714D02*
X163345714Y-111268809D01*
X161917142Y-111268809D01*
X161917142Y-111030714D01*
X162964761Y-109459285D02*
X163012380Y-109554523D01*
X163012380Y-109745000D01*
X162964761Y-109840238D01*
X162917142Y-109887857D01*
X162821904Y-109935476D01*
X162536190Y-109935476D01*
X162440952Y-109887857D01*
X162393333Y-109840238D01*
X162345714Y-109745000D01*
X162345714Y-109554523D01*
X162393333Y-109459285D01*
X163012380Y-108887857D02*
X162964761Y-108983095D01*
X162917142Y-109030714D01*
X162821904Y-109078333D01*
X162536190Y-109078333D01*
X162440952Y-109030714D01*
X162393333Y-108983095D01*
X162345714Y-108887857D01*
X162345714Y-108745000D01*
X162393333Y-108649761D01*
X162440952Y-108602142D01*
X162536190Y-108554523D01*
X162821904Y-108554523D01*
X162917142Y-108602142D01*
X162964761Y-108649761D01*
X163012380Y-108745000D01*
X163012380Y-108887857D01*
X163012380Y-108125952D02*
X162345714Y-108125952D01*
X162440952Y-108125952D02*
X162393333Y-108078333D01*
X162345714Y-107983095D01*
X162345714Y-107840238D01*
X162393333Y-107745000D01*
X162488571Y-107697380D01*
X163012380Y-107697380D01*
X162488571Y-107697380D02*
X162393333Y-107649761D01*
X162345714Y-107554523D01*
X162345714Y-107411666D01*
X162393333Y-107316428D01*
X162488571Y-107268809D01*
X163012380Y-107268809D01*
X162345714Y-106792619D02*
X163345714Y-106792619D01*
X162393333Y-106792619D02*
X162345714Y-106697380D01*
X162345714Y-106506904D01*
X162393333Y-106411666D01*
X162440952Y-106364047D01*
X162536190Y-106316428D01*
X162821904Y-106316428D01*
X162917142Y-106364047D01*
X162964761Y-106411666D01*
X163012380Y-106506904D01*
X163012380Y-106697380D01*
X162964761Y-106792619D01*
X162345714Y-105459285D02*
X163012380Y-105459285D01*
X162345714Y-105887857D02*
X162869523Y-105887857D01*
X162964761Y-105840238D01*
X163012380Y-105745000D01*
X163012380Y-105602142D01*
X162964761Y-105506904D01*
X162917142Y-105459285D01*
X162345714Y-105125952D02*
X162345714Y-104745000D01*
X162012380Y-104983095D02*
X162869523Y-104983095D01*
X162964761Y-104935476D01*
X163012380Y-104840238D01*
X163012380Y-104745000D01*
X162964761Y-104030714D02*
X163012380Y-104125952D01*
X163012380Y-104316428D01*
X162964761Y-104411666D01*
X162869523Y-104459285D01*
X162488571Y-104459285D01*
X162393333Y-104411666D01*
X162345714Y-104316428D01*
X162345714Y-104125952D01*
X162393333Y-104030714D01*
X162488571Y-103983095D01*
X162583809Y-103983095D01*
X162679047Y-104459285D01*
X163012380Y-103554523D02*
X162345714Y-103554523D01*
X162536190Y-103554523D02*
X162440952Y-103506904D01*
X162393333Y-103459285D01*
X162345714Y-103364047D01*
X162345714Y-103268809D01*
X163393333Y-103030714D02*
X163345714Y-102983095D01*
X163202857Y-102887857D01*
X163107619Y-102840238D01*
X162964761Y-102792619D01*
X162726666Y-102745000D01*
X162536190Y-102745000D01*
X162298095Y-102792619D01*
X162155238Y-102840238D01*
X162060000Y-102887857D01*
X161917142Y-102983095D01*
X161869523Y-103030714D01*
D11*
%TO.C,A1*%
X173355000Y-136525000D02*
X173355000Y-116205000D01*
X175895000Y-136525000D02*
X173355000Y-136525000D01*
X175895000Y-116205000D02*
X175895000Y-136525000D01*
X173355000Y-116205000D02*
X175895000Y-116205000D01*
X165735000Y-136525000D02*
X165735000Y-116205000D01*
X168275000Y-136525000D02*
X165735000Y-136525000D01*
X168275000Y-116205000D02*
X168275000Y-136525000D01*
X165735000Y-116205000D02*
X168275000Y-116205000D01*
X168910000Y-117475000D02*
X169545000Y-116840000D01*
X169545000Y-116840000D02*
X169545000Y-118110000D01*
X169545000Y-118110000D02*
X168910000Y-117475000D01*
%TO.C,R3*%
X212820000Y-114400000D02*
X212820000Y-111660000D01*
X212820000Y-111660000D02*
X206280000Y-111660000D01*
X206280000Y-111660000D02*
X206280000Y-114400000D01*
X206280000Y-114400000D02*
X212820000Y-114400000D01*
X213590000Y-113030000D02*
X212820000Y-113030000D01*
X205510000Y-113030000D02*
X206280000Y-113030000D01*
%TO.C,C2*%
X203935000Y-120680000D02*
X203935000Y-125620000D01*
X201195000Y-120680000D02*
X201195000Y-125620000D01*
X203935000Y-120680000D02*
X203620000Y-120680000D01*
X201510000Y-120680000D02*
X201195000Y-120680000D01*
X203935000Y-125620000D02*
X203620000Y-125620000D01*
X201510000Y-125620000D02*
X201195000Y-125620000D01*
%TO.C,R14*%
X186920000Y-132080000D02*
X186150000Y-132080000D01*
X178840000Y-132080000D02*
X179610000Y-132080000D01*
X186150000Y-130710000D02*
X179610000Y-130710000D01*
X186150000Y-133450000D02*
X186150000Y-130710000D01*
X179610000Y-133450000D02*
X186150000Y-133450000D01*
X179610000Y-130710000D02*
X179610000Y-133450000D01*
%TO.C,U1*%
X215435000Y-119260000D02*
X204935000Y-119260000D01*
X215435000Y-137280000D02*
X215435000Y-119260000D01*
X204935000Y-137280000D02*
X215435000Y-137280000D01*
X204935000Y-119260000D02*
X204935000Y-137280000D01*
X212435000Y-119320000D02*
X211185000Y-119320000D01*
X212435000Y-137220000D02*
X212435000Y-119320000D01*
X207935000Y-137220000D02*
X212435000Y-137220000D01*
X207935000Y-119320000D02*
X207935000Y-137220000D01*
X209185000Y-119320000D02*
X207935000Y-119320000D01*
X211185000Y-119320000D02*
G75*
G02*
X209185000Y-119320000I-1000000J0D01*
G01*
%TO.C,C1*%
X216750000Y-125620000D02*
X216435000Y-125620000D01*
X219175000Y-125620000D02*
X218860000Y-125620000D01*
X216750000Y-120680000D02*
X216435000Y-120680000D01*
X219175000Y-120680000D02*
X218860000Y-120680000D01*
X216435000Y-120680000D02*
X216435000Y-125620000D01*
X219175000Y-120680000D02*
X219175000Y-125620000D01*
%TO.C,C3*%
X165610000Y-114734801D02*
X166010000Y-114734801D01*
X165810000Y-114934801D02*
X165810000Y-114534801D01*
X166635000Y-110584000D02*
X167375000Y-110584000D01*
X166468000Y-110624000D02*
X167542000Y-110624000D01*
X166341000Y-110664000D02*
X167669000Y-110664000D01*
X166237000Y-110704000D02*
X167773000Y-110704000D01*
X166146000Y-110744000D02*
X167864000Y-110744000D01*
X166065000Y-110784000D02*
X167945000Y-110784000D01*
X165992000Y-110824000D02*
X168018000Y-110824000D01*
X167845000Y-110864000D02*
X168085000Y-110864000D01*
X165925000Y-110864000D02*
X166165000Y-110864000D01*
X167845000Y-110904000D02*
X168147000Y-110904000D01*
X165863000Y-110904000D02*
X166165000Y-110904000D01*
X167845000Y-110944000D02*
X168205000Y-110944000D01*
X165805000Y-110944000D02*
X166165000Y-110944000D01*
X167845000Y-110984000D02*
X168259000Y-110984000D01*
X165751000Y-110984000D02*
X166165000Y-110984000D01*
X167845000Y-111024000D02*
X168309000Y-111024000D01*
X165701000Y-111024000D02*
X166165000Y-111024000D01*
X167845000Y-111064000D02*
X168356000Y-111064000D01*
X165654000Y-111064000D02*
X166165000Y-111064000D01*
X167845000Y-111104000D02*
X168401000Y-111104000D01*
X165609000Y-111104000D02*
X166165000Y-111104000D01*
X167845000Y-111144000D02*
X168443000Y-111144000D01*
X165567000Y-111144000D02*
X166165000Y-111144000D01*
X167845000Y-111184000D02*
X168483000Y-111184000D01*
X165527000Y-111184000D02*
X166165000Y-111184000D01*
X167845000Y-111224000D02*
X168521000Y-111224000D01*
X165489000Y-111224000D02*
X166165000Y-111224000D01*
X167845000Y-111264000D02*
X168557000Y-111264000D01*
X165453000Y-111264000D02*
X166165000Y-111264000D01*
X167845000Y-111304000D02*
X168592000Y-111304000D01*
X165418000Y-111304000D02*
X166165000Y-111304000D01*
X167845000Y-111344000D02*
X168624000Y-111344000D01*
X165386000Y-111344000D02*
X166165000Y-111344000D01*
X167845000Y-111384000D02*
X168655000Y-111384000D01*
X165355000Y-111384000D02*
X166165000Y-111384000D01*
X167845000Y-111424000D02*
X168685000Y-111424000D01*
X165325000Y-111424000D02*
X166165000Y-111424000D01*
X167845000Y-111464000D02*
X168713000Y-111464000D01*
X165297000Y-111464000D02*
X166165000Y-111464000D01*
X167845000Y-111504000D02*
X168740000Y-111504000D01*
X165270000Y-111504000D02*
X166165000Y-111504000D01*
X167845000Y-111544000D02*
X168765000Y-111544000D01*
X165245000Y-111544000D02*
X166165000Y-111544000D01*
X167845000Y-111584000D02*
X168790000Y-111584000D01*
X165220000Y-111584000D02*
X166165000Y-111584000D01*
X167845000Y-111624000D02*
X168813000Y-111624000D01*
X165197000Y-111624000D02*
X166165000Y-111624000D01*
X167845000Y-111664000D02*
X168835000Y-111664000D01*
X165175000Y-111664000D02*
X166165000Y-111664000D01*
X167845000Y-111704000D02*
X168856000Y-111704000D01*
X165154000Y-111704000D02*
X166165000Y-111704000D01*
X167845000Y-111744000D02*
X168875000Y-111744000D01*
X165135000Y-111744000D02*
X166165000Y-111744000D01*
X167845000Y-111784000D02*
X168894000Y-111784000D01*
X165116000Y-111784000D02*
X166165000Y-111784000D01*
X167845000Y-111824000D02*
X168912000Y-111824000D01*
X165098000Y-111824000D02*
X166165000Y-111824000D01*
X167845000Y-111864000D02*
X168929000Y-111864000D01*
X165081000Y-111864000D02*
X166165000Y-111864000D01*
X167845000Y-111904000D02*
X168945000Y-111904000D01*
X165065000Y-111904000D02*
X166165000Y-111904000D01*
X167845000Y-111944000D02*
X168959000Y-111944000D01*
X165051000Y-111944000D02*
X166165000Y-111944000D01*
X167845000Y-111985000D02*
X168973000Y-111985000D01*
X165037000Y-111985000D02*
X166165000Y-111985000D01*
X167845000Y-112025000D02*
X168987000Y-112025000D01*
X165023000Y-112025000D02*
X166165000Y-112025000D01*
X167845000Y-112065000D02*
X168999000Y-112065000D01*
X165011000Y-112065000D02*
X166165000Y-112065000D01*
X167845000Y-112105000D02*
X169010000Y-112105000D01*
X165000000Y-112105000D02*
X166165000Y-112105000D01*
X167845000Y-112145000D02*
X169021000Y-112145000D01*
X164989000Y-112145000D02*
X166165000Y-112145000D01*
X167845000Y-112185000D02*
X169030000Y-112185000D01*
X164980000Y-112185000D02*
X166165000Y-112185000D01*
X167845000Y-112225000D02*
X169039000Y-112225000D01*
X164971000Y-112225000D02*
X166165000Y-112225000D01*
X167845000Y-112265000D02*
X169047000Y-112265000D01*
X164963000Y-112265000D02*
X166165000Y-112265000D01*
X167845000Y-112305000D02*
X169055000Y-112305000D01*
X164955000Y-112305000D02*
X166165000Y-112305000D01*
X167845000Y-112345000D02*
X169061000Y-112345000D01*
X164949000Y-112345000D02*
X166165000Y-112345000D01*
X167845000Y-112385000D02*
X169067000Y-112385000D01*
X164943000Y-112385000D02*
X166165000Y-112385000D01*
X167845000Y-112425000D02*
X169072000Y-112425000D01*
X164938000Y-112425000D02*
X166165000Y-112425000D01*
X167845000Y-112465000D02*
X169076000Y-112465000D01*
X164934000Y-112465000D02*
X166165000Y-112465000D01*
X164931000Y-112505000D02*
X169079000Y-112505000D01*
X164928000Y-112545000D02*
X169082000Y-112545000D01*
X164926000Y-112585000D02*
X169084000Y-112585000D01*
X164925000Y-112625000D02*
X169085000Y-112625000D01*
X164925000Y-112665000D02*
X169085000Y-112665000D01*
X169125000Y-112665000D02*
G75*
G03*
X169125000Y-112665000I-2120000J0D01*
G01*
D12*
%TO.C,J1*%
X188615000Y-107930000D02*
X168255000Y-107930000D01*
X188075000Y-107380000D02*
X168815000Y-107380000D01*
X188615000Y-99080000D02*
X168255000Y-99080000D01*
X188075000Y-99630000D02*
X180685000Y-99630000D01*
X176185000Y-99630000D02*
X168815000Y-99630000D01*
X180685000Y-99630000D02*
X180685000Y-99080000D01*
X176185000Y-99630000D02*
X176185000Y-99080000D01*
X188615000Y-107930000D02*
X188615000Y-99080000D01*
X188075000Y-107380000D02*
X188075000Y-99630000D01*
X168255000Y-107930000D02*
X168255000Y-99080000D01*
X168815000Y-107380000D02*
X168815000Y-99630000D01*
X188615000Y-107930000D02*
X188075000Y-107380000D01*
X168255000Y-107930000D02*
X168815000Y-107380000D01*
X188615000Y-99080000D02*
X188075000Y-99630000D01*
X168255000Y-99080000D02*
X168815000Y-99630000D01*
D11*
X188865000Y-108180000D02*
X168005000Y-108180000D01*
X168005000Y-108180000D02*
X168005000Y-98830000D01*
X168005000Y-98830000D02*
X188865000Y-98830000D01*
X188865000Y-98830000D02*
X188865000Y-108180000D01*
X189115000Y-98580000D02*
X186575000Y-98580000D01*
X189115000Y-98580000D02*
X189115000Y-101120000D01*
X183451500Y-100782575D02*
X183201500Y-100349562D01*
X183701500Y-100349562D02*
X183451500Y-100782575D01*
X183201500Y-100349562D02*
X183701500Y-100349562D01*
%TO.C,J2*%
X212411500Y-100349562D02*
X212911500Y-100349562D01*
X212911500Y-100349562D02*
X212661500Y-100782575D01*
X212661500Y-100782575D02*
X212411500Y-100349562D01*
X218325000Y-98580000D02*
X218325000Y-101120000D01*
X218325000Y-98580000D02*
X215785000Y-98580000D01*
X218075000Y-98830000D02*
X218075000Y-108180000D01*
X197215000Y-98830000D02*
X218075000Y-98830000D01*
X197215000Y-108180000D02*
X197215000Y-98830000D01*
X218075000Y-108180000D02*
X197215000Y-108180000D01*
D12*
X197465000Y-99080000D02*
X198025000Y-99630000D01*
X217825000Y-99080000D02*
X217285000Y-99630000D01*
X197465000Y-107930000D02*
X198025000Y-107380000D01*
X217825000Y-107930000D02*
X217285000Y-107380000D01*
X198025000Y-107380000D02*
X198025000Y-99630000D01*
X197465000Y-107930000D02*
X197465000Y-99080000D01*
X217285000Y-107380000D02*
X217285000Y-99630000D01*
X217825000Y-107930000D02*
X217825000Y-99080000D01*
X205395000Y-99630000D02*
X205395000Y-99080000D01*
X209895000Y-99630000D02*
X209895000Y-99080000D01*
X205395000Y-99630000D02*
X198025000Y-99630000D01*
X217285000Y-99630000D02*
X209895000Y-99630000D01*
X217825000Y-99080000D02*
X197465000Y-99080000D01*
X217285000Y-107380000D02*
X198025000Y-107380000D01*
X217825000Y-107930000D02*
X197465000Y-107930000D01*
D11*
%TO.C,R1*%
X178840000Y-113030000D02*
X179610000Y-113030000D01*
X186920000Y-113030000D02*
X186150000Y-113030000D01*
X179610000Y-114400000D02*
X186150000Y-114400000D01*
X179610000Y-111660000D02*
X179610000Y-114400000D01*
X186150000Y-111660000D02*
X179610000Y-111660000D01*
X186150000Y-114400000D02*
X186150000Y-111660000D01*
%TO.C,R2*%
X199485000Y-114400000D02*
X199485000Y-111660000D01*
X199485000Y-111660000D02*
X192945000Y-111660000D01*
X192945000Y-111660000D02*
X192945000Y-114400000D01*
X192945000Y-114400000D02*
X199485000Y-114400000D01*
X200255000Y-113030000D02*
X199485000Y-113030000D01*
X192175000Y-113030000D02*
X192945000Y-113030000D01*
%TO.C,R4*%
X205510000Y-116205000D02*
X206280000Y-116205000D01*
X213590000Y-116205000D02*
X212820000Y-116205000D01*
X206280000Y-117575000D02*
X212820000Y-117575000D01*
X206280000Y-114835000D02*
X206280000Y-117575000D01*
X212820000Y-114835000D02*
X206280000Y-114835000D01*
X212820000Y-117575000D02*
X212820000Y-114835000D01*
%TO.C,R7*%
X186150000Y-117575000D02*
X186150000Y-114835000D01*
X186150000Y-114835000D02*
X179610000Y-114835000D01*
X179610000Y-114835000D02*
X179610000Y-117575000D01*
X179610000Y-117575000D02*
X186150000Y-117575000D01*
X186920000Y-116205000D02*
X186150000Y-116205000D01*
X178840000Y-116205000D02*
X179610000Y-116205000D01*
%TO.C,R8*%
X178840000Y-122555000D02*
X179610000Y-122555000D01*
X186920000Y-122555000D02*
X186150000Y-122555000D01*
X179610000Y-123925000D02*
X186150000Y-123925000D01*
X179610000Y-121185000D02*
X179610000Y-123925000D01*
X186150000Y-121185000D02*
X179610000Y-121185000D01*
X186150000Y-123925000D02*
X186150000Y-121185000D01*
%TO.C,R9*%
X178840000Y-128905000D02*
X179610000Y-128905000D01*
X186920000Y-128905000D02*
X186150000Y-128905000D01*
X179610000Y-130275000D02*
X186150000Y-130275000D01*
X179610000Y-127535000D02*
X179610000Y-130275000D01*
X186150000Y-127535000D02*
X179610000Y-127535000D01*
X186150000Y-130275000D02*
X186150000Y-127535000D01*
%TO.C,R10*%
X186150000Y-136625000D02*
X186150000Y-133885000D01*
X186150000Y-133885000D02*
X179610000Y-133885000D01*
X179610000Y-133885000D02*
X179610000Y-136625000D01*
X179610000Y-136625000D02*
X186150000Y-136625000D01*
X186920000Y-135255000D02*
X186150000Y-135255000D01*
X178840000Y-135255000D02*
X179610000Y-135255000D01*
%TO.C,R11*%
X186920000Y-119380000D02*
X186150000Y-119380000D01*
X178840000Y-119380000D02*
X179610000Y-119380000D01*
X186150000Y-118010000D02*
X179610000Y-118010000D01*
X186150000Y-120750000D02*
X186150000Y-118010000D01*
X179610000Y-120750000D02*
X186150000Y-120750000D01*
X179610000Y-118010000D02*
X179610000Y-120750000D01*
%TO.C,R12*%
X199485000Y-117575000D02*
X199485000Y-114835000D01*
X199485000Y-114835000D02*
X192945000Y-114835000D01*
X192945000Y-114835000D02*
X192945000Y-117575000D01*
X192945000Y-117575000D02*
X199485000Y-117575000D01*
X200255000Y-116205000D02*
X199485000Y-116205000D01*
X192175000Y-116205000D02*
X192945000Y-116205000D01*
%TO.C,R13*%
X186920000Y-125730000D02*
X186150000Y-125730000D01*
X178840000Y-125730000D02*
X179610000Y-125730000D01*
X186150000Y-124360000D02*
X179610000Y-124360000D01*
X186150000Y-127100000D02*
X186150000Y-124360000D01*
X179610000Y-127100000D02*
X186150000Y-127100000D01*
X179610000Y-124360000D02*
X179610000Y-127100000D01*
%TO.C,U2*%
X195945000Y-119320000D02*
G75*
G02*
X193945000Y-119320000I-1000000J0D01*
G01*
X193945000Y-119320000D02*
X192695000Y-119320000D01*
X192695000Y-119320000D02*
X192695000Y-137220000D01*
X192695000Y-137220000D02*
X197195000Y-137220000D01*
X197195000Y-137220000D02*
X197195000Y-119320000D01*
X197195000Y-119320000D02*
X195945000Y-119320000D01*
X189695000Y-119260000D02*
X189695000Y-137280000D01*
X189695000Y-137280000D02*
X200195000Y-137280000D01*
X200195000Y-137280000D02*
X200195000Y-119260000D01*
X200195000Y-119260000D02*
X189695000Y-119260000D01*
%TO.C,R5*%
X216765000Y-135985000D02*
X216435000Y-135985000D01*
X216435000Y-135985000D02*
X216435000Y-129445000D01*
X216435000Y-129445000D02*
X216765000Y-129445000D01*
X218845000Y-135985000D02*
X219175000Y-135985000D01*
X219175000Y-135985000D02*
X219175000Y-129445000D01*
X219175000Y-129445000D02*
X218845000Y-129445000D01*
%TO.C,R6*%
X201195000Y-135985000D02*
X201525000Y-135985000D01*
X201195000Y-129445000D02*
X201195000Y-135985000D01*
X201525000Y-129445000D02*
X201195000Y-129445000D01*
X203935000Y-135985000D02*
X203605000Y-135985000D01*
X203935000Y-129445000D02*
X203935000Y-135985000D01*
X203605000Y-129445000D02*
X203935000Y-129445000D01*
%TO.C,A1*%
D10*
X170981666Y-120729285D02*
X170981666Y-120253095D01*
X171267380Y-120824523D02*
X170267380Y-120491190D01*
X171267380Y-120157857D01*
X171267380Y-119300714D02*
X171267380Y-119872142D01*
X171267380Y-119586428D02*
X170267380Y-119586428D01*
X170410238Y-119681666D01*
X170505476Y-119776904D01*
X170553095Y-119872142D01*
X170315000Y-128793571D02*
X170267380Y-128888809D01*
X170267380Y-129031666D01*
X170315000Y-129174523D01*
X170410238Y-129269761D01*
X170505476Y-129317380D01*
X170695952Y-129365000D01*
X170838809Y-129365000D01*
X171029285Y-129317380D01*
X171124523Y-129269761D01*
X171219761Y-129174523D01*
X171267380Y-129031666D01*
X171267380Y-128936428D01*
X171219761Y-128793571D01*
X171172142Y-128745952D01*
X170838809Y-128745952D01*
X170838809Y-128936428D01*
X171267380Y-127888809D02*
X170743571Y-127888809D01*
X170648333Y-127936428D01*
X170600714Y-128031666D01*
X170600714Y-128222142D01*
X170648333Y-128317380D01*
X171219761Y-127888809D02*
X171267380Y-127984047D01*
X171267380Y-128222142D01*
X171219761Y-128317380D01*
X171124523Y-128365000D01*
X171029285Y-128365000D01*
X170934047Y-128317380D01*
X170886428Y-128222142D01*
X170886428Y-127984047D01*
X170838809Y-127888809D01*
X171267380Y-127412619D02*
X170600714Y-127412619D01*
X170695952Y-127412619D02*
X170648333Y-127365000D01*
X170600714Y-127269761D01*
X170600714Y-127126904D01*
X170648333Y-127031666D01*
X170743571Y-126984047D01*
X171267380Y-126984047D01*
X170743571Y-126984047D02*
X170648333Y-126936428D01*
X170600714Y-126841190D01*
X170600714Y-126698333D01*
X170648333Y-126603095D01*
X170743571Y-126555476D01*
X171267380Y-126555476D01*
X171219761Y-125698333D02*
X171267380Y-125793571D01*
X171267380Y-125984047D01*
X171219761Y-126079285D01*
X171124523Y-126126904D01*
X170743571Y-126126904D01*
X170648333Y-126079285D01*
X170600714Y-125984047D01*
X170600714Y-125793571D01*
X170648333Y-125698333D01*
X170743571Y-125650714D01*
X170838809Y-125650714D01*
X170934047Y-126126904D01*
X171362619Y-125460238D02*
X171362619Y-124698333D01*
X171267380Y-124460238D02*
X170267380Y-124460238D01*
X170267380Y-123793571D02*
X170267380Y-123603095D01*
X170315000Y-123507857D01*
X170410238Y-123412619D01*
X170600714Y-123365000D01*
X170934047Y-123365000D01*
X171124523Y-123412619D01*
X171219761Y-123507857D01*
X171267380Y-123603095D01*
X171267380Y-123793571D01*
X171219761Y-123888809D01*
X171124523Y-123984047D01*
X170934047Y-124031666D01*
X170600714Y-124031666D01*
X170410238Y-123984047D01*
X170315000Y-123888809D01*
X170267380Y-123793571D01*
%TO.C,R3*%
X208097380Y-113196666D02*
X207621190Y-113530000D01*
X208097380Y-113768095D02*
X207097380Y-113768095D01*
X207097380Y-113387142D01*
X207145000Y-113291904D01*
X207192619Y-113244285D01*
X207287857Y-113196666D01*
X207430714Y-113196666D01*
X207525952Y-113244285D01*
X207573571Y-113291904D01*
X207621190Y-113387142D01*
X207621190Y-113768095D01*
X207097380Y-112863333D02*
X207097380Y-112244285D01*
X207478333Y-112577619D01*
X207478333Y-112434761D01*
X207525952Y-112339523D01*
X207573571Y-112291904D01*
X207668809Y-112244285D01*
X207906904Y-112244285D01*
X208002142Y-112291904D01*
X208049761Y-112339523D01*
X208097380Y-112434761D01*
X208097380Y-112720476D01*
X208049761Y-112815714D01*
X208002142Y-112863333D01*
X210700952Y-113482380D02*
X210129523Y-113482380D01*
X210415238Y-113482380D02*
X210415238Y-112482380D01*
X210320000Y-112625238D01*
X210224761Y-112720476D01*
X210129523Y-112768095D01*
X211129523Y-113482380D02*
X211129523Y-112482380D01*
X211224761Y-113101428D02*
X211510476Y-113482380D01*
X211510476Y-112815714D02*
X211129523Y-113196666D01*
%TO.C,C2*%
X202922142Y-123316666D02*
X202969761Y-123364285D01*
X203017380Y-123507142D01*
X203017380Y-123602380D01*
X202969761Y-123745238D01*
X202874523Y-123840476D01*
X202779285Y-123888095D01*
X202588809Y-123935714D01*
X202445952Y-123935714D01*
X202255476Y-123888095D01*
X202160238Y-123840476D01*
X202065000Y-123745238D01*
X202017380Y-123602380D01*
X202017380Y-123507142D01*
X202065000Y-123364285D01*
X202112619Y-123316666D01*
X202112619Y-122935714D02*
X202065000Y-122888095D01*
X202017380Y-122792857D01*
X202017380Y-122554761D01*
X202065000Y-122459523D01*
X202112619Y-122411904D01*
X202207857Y-122364285D01*
X202303095Y-122364285D01*
X202445952Y-122411904D01*
X203017380Y-122983333D01*
X203017380Y-122364285D01*
%TO.C,R14*%
X181427380Y-132722857D02*
X180951190Y-133056190D01*
X181427380Y-133294285D02*
X180427380Y-133294285D01*
X180427380Y-132913333D01*
X180475000Y-132818095D01*
X180522619Y-132770476D01*
X180617857Y-132722857D01*
X180760714Y-132722857D01*
X180855952Y-132770476D01*
X180903571Y-132818095D01*
X180951190Y-132913333D01*
X180951190Y-133294285D01*
X181427380Y-131770476D02*
X181427380Y-132341904D01*
X181427380Y-132056190D02*
X180427380Y-132056190D01*
X180570238Y-132151428D01*
X180665476Y-132246666D01*
X180713095Y-132341904D01*
X180760714Y-130913333D02*
X181427380Y-130913333D01*
X180379761Y-131151428D02*
X181094047Y-131389523D01*
X181094047Y-130770476D01*
X183078571Y-132532380D02*
X182507142Y-132532380D01*
X182792857Y-132532380D02*
X182792857Y-131532380D01*
X182697619Y-131675238D01*
X182602380Y-131770476D01*
X182507142Y-131818095D01*
X183697619Y-131532380D02*
X183792857Y-131532380D01*
X183888095Y-131580000D01*
X183935714Y-131627619D01*
X183983333Y-131722857D01*
X184030952Y-131913333D01*
X184030952Y-132151428D01*
X183983333Y-132341904D01*
X183935714Y-132437142D01*
X183888095Y-132484761D01*
X183792857Y-132532380D01*
X183697619Y-132532380D01*
X183602380Y-132484761D01*
X183554761Y-132437142D01*
X183507142Y-132341904D01*
X183459523Y-132151428D01*
X183459523Y-131913333D01*
X183507142Y-131722857D01*
X183554761Y-131627619D01*
X183602380Y-131580000D01*
X183697619Y-131532380D01*
X184650000Y-131532380D02*
X184745238Y-131532380D01*
X184840476Y-131580000D01*
X184888095Y-131627619D01*
X184935714Y-131722857D01*
X184983333Y-131913333D01*
X184983333Y-132151428D01*
X184935714Y-132341904D01*
X184888095Y-132437142D01*
X184840476Y-132484761D01*
X184745238Y-132532380D01*
X184650000Y-132532380D01*
X184554761Y-132484761D01*
X184507142Y-132437142D01*
X184459523Y-132341904D01*
X184411904Y-132151428D01*
X184411904Y-131913333D01*
X184459523Y-131722857D01*
X184507142Y-131627619D01*
X184554761Y-131580000D01*
X184650000Y-131532380D01*
X185411904Y-132532380D02*
X185411904Y-131532380D01*
X185507142Y-132151428D02*
X185792857Y-132532380D01*
X185792857Y-131865714D02*
X185411904Y-132246666D01*
%TO.C,U1*%
X209637380Y-123951904D02*
X210446904Y-123951904D01*
X210542142Y-123904285D01*
X210589761Y-123856666D01*
X210637380Y-123761428D01*
X210637380Y-123570952D01*
X210589761Y-123475714D01*
X210542142Y-123428095D01*
X210446904Y-123380476D01*
X209637380Y-123380476D01*
X210637380Y-122380476D02*
X210637380Y-122951904D01*
X210637380Y-122666190D02*
X209637380Y-122666190D01*
X209780238Y-122761428D01*
X209875476Y-122856666D01*
X209923095Y-122951904D01*
X209637380Y-131436666D02*
X209637380Y-130770000D01*
X210637380Y-131198571D01*
X209970714Y-129960476D02*
X210637380Y-129960476D01*
X209589761Y-130198571D02*
X210304047Y-130436666D01*
X210304047Y-129817619D01*
X210637380Y-129436666D02*
X209637380Y-129436666D01*
X210113571Y-129436666D02*
X210113571Y-128865238D01*
X210637380Y-128865238D02*
X209637380Y-128865238D01*
X210542142Y-127817619D02*
X210589761Y-127865238D01*
X210637380Y-128008095D01*
X210637380Y-128103333D01*
X210589761Y-128246190D01*
X210494523Y-128341428D01*
X210399285Y-128389047D01*
X210208809Y-128436666D01*
X210065952Y-128436666D01*
X209875476Y-128389047D01*
X209780238Y-128341428D01*
X209685000Y-128246190D01*
X209637380Y-128103333D01*
X209637380Y-128008095D01*
X209685000Y-127865238D01*
X209732619Y-127817619D01*
X209637380Y-127531904D02*
X209637380Y-126960476D01*
X210637380Y-127246190D02*
X209637380Y-127246190D01*
X209637380Y-126436666D02*
X209637380Y-126341428D01*
X209685000Y-126246190D01*
X209732619Y-126198571D01*
X209827857Y-126150952D01*
X210018333Y-126103333D01*
X210256428Y-126103333D01*
X210446904Y-126150952D01*
X210542142Y-126198571D01*
X210589761Y-126246190D01*
X210637380Y-126341428D01*
X210637380Y-126436666D01*
X210589761Y-126531904D01*
X210542142Y-126579523D01*
X210446904Y-126627142D01*
X210256428Y-126674761D01*
X210018333Y-126674761D01*
X209827857Y-126627142D01*
X209732619Y-126579523D01*
X209685000Y-126531904D01*
X209637380Y-126436666D01*
X209970714Y-125246190D02*
X210637380Y-125246190D01*
X209589761Y-125484285D02*
X210304047Y-125722380D01*
X210304047Y-125103333D01*
%TO.C,C1*%
X218162142Y-123316666D02*
X218209761Y-123364285D01*
X218257380Y-123507142D01*
X218257380Y-123602380D01*
X218209761Y-123745238D01*
X218114523Y-123840476D01*
X218019285Y-123888095D01*
X217828809Y-123935714D01*
X217685952Y-123935714D01*
X217495476Y-123888095D01*
X217400238Y-123840476D01*
X217305000Y-123745238D01*
X217257380Y-123602380D01*
X217257380Y-123507142D01*
X217305000Y-123364285D01*
X217352619Y-123316666D01*
X218257380Y-122364285D02*
X218257380Y-122935714D01*
X218257380Y-122650000D02*
X217257380Y-122650000D01*
X217400238Y-122745238D01*
X217495476Y-122840476D01*
X217543095Y-122935714D01*
%TO.C,C3*%
X166838333Y-110212142D02*
X166790714Y-110259761D01*
X166647857Y-110307380D01*
X166552619Y-110307380D01*
X166409761Y-110259761D01*
X166314523Y-110164523D01*
X166266904Y-110069285D01*
X166219285Y-109878809D01*
X166219285Y-109735952D01*
X166266904Y-109545476D01*
X166314523Y-109450238D01*
X166409761Y-109355000D01*
X166552619Y-109307380D01*
X166647857Y-109307380D01*
X166790714Y-109355000D01*
X166838333Y-109402619D01*
X167171666Y-109307380D02*
X167790714Y-109307380D01*
X167457380Y-109688333D01*
X167600238Y-109688333D01*
X167695476Y-109735952D01*
X167743095Y-109783571D01*
X167790714Y-109878809D01*
X167790714Y-110116904D01*
X167743095Y-110212142D01*
X167695476Y-110259761D01*
X167600238Y-110307380D01*
X167314523Y-110307380D01*
X167219285Y-110259761D01*
X167171666Y-110212142D01*
X169965714Y-114069761D02*
X170632380Y-114069761D01*
X169584761Y-114307857D02*
X170299047Y-114545952D01*
X170299047Y-113926904D01*
X170537142Y-113545952D02*
X170584761Y-113498333D01*
X170632380Y-113545952D01*
X170584761Y-113593571D01*
X170537142Y-113545952D01*
X170632380Y-113545952D01*
X169632380Y-113165000D02*
X169632380Y-112498333D01*
X170632380Y-112926904D01*
X169965714Y-111688809D02*
X170632380Y-111688809D01*
X169965714Y-112117380D02*
X170489523Y-112117380D01*
X170584761Y-112069761D01*
X170632380Y-111974523D01*
X170632380Y-111831666D01*
X170584761Y-111736428D01*
X170537142Y-111688809D01*
X170108571Y-110879285D02*
X170108571Y-111212619D01*
X170632380Y-111212619D02*
X169632380Y-111212619D01*
X169632380Y-110736428D01*
%TO.C,J1*%
X169846666Y-100417380D02*
X169846666Y-101131666D01*
X169799047Y-101274523D01*
X169703809Y-101369761D01*
X169560952Y-101417380D01*
X169465714Y-101417380D01*
X170846666Y-101417380D02*
X170275238Y-101417380D01*
X170560952Y-101417380D02*
X170560952Y-100417380D01*
X170465714Y-100560238D01*
X170370476Y-100655476D01*
X170275238Y-100703095D01*
%TO.C,J2*%
X199056666Y-100417380D02*
X199056666Y-101131666D01*
X199009047Y-101274523D01*
X198913809Y-101369761D01*
X198770952Y-101417380D01*
X198675714Y-101417380D01*
X199485238Y-100512619D02*
X199532857Y-100465000D01*
X199628095Y-100417380D01*
X199866190Y-100417380D01*
X199961428Y-100465000D01*
X200009047Y-100512619D01*
X200056666Y-100607857D01*
X200056666Y-100703095D01*
X200009047Y-100845952D01*
X199437619Y-101417380D01*
X200056666Y-101417380D01*
%TO.C,R1*%
X181427380Y-113196666D02*
X180951190Y-113530000D01*
X181427380Y-113768095D02*
X180427380Y-113768095D01*
X180427380Y-113387142D01*
X180475000Y-113291904D01*
X180522619Y-113244285D01*
X180617857Y-113196666D01*
X180760714Y-113196666D01*
X180855952Y-113244285D01*
X180903571Y-113291904D01*
X180951190Y-113387142D01*
X180951190Y-113768095D01*
X181427380Y-112244285D02*
X181427380Y-112815714D01*
X181427380Y-112530000D02*
X180427380Y-112530000D01*
X180570238Y-112625238D01*
X180665476Y-112720476D01*
X180713095Y-112815714D01*
X184030952Y-113482380D02*
X183459523Y-113482380D01*
X183745238Y-113482380D02*
X183745238Y-112482380D01*
X183650000Y-112625238D01*
X183554761Y-112720476D01*
X183459523Y-112768095D01*
X184459523Y-113482380D02*
X184459523Y-112482380D01*
X184554761Y-113101428D02*
X184840476Y-113482380D01*
X184840476Y-112815714D02*
X184459523Y-113196666D01*
%TO.C,R2*%
X194762380Y-113196666D02*
X194286190Y-113530000D01*
X194762380Y-113768095D02*
X193762380Y-113768095D01*
X193762380Y-113387142D01*
X193810000Y-113291904D01*
X193857619Y-113244285D01*
X193952857Y-113196666D01*
X194095714Y-113196666D01*
X194190952Y-113244285D01*
X194238571Y-113291904D01*
X194286190Y-113387142D01*
X194286190Y-113768095D01*
X193857619Y-112815714D02*
X193810000Y-112768095D01*
X193762380Y-112672857D01*
X193762380Y-112434761D01*
X193810000Y-112339523D01*
X193857619Y-112291904D01*
X193952857Y-112244285D01*
X194048095Y-112244285D01*
X194190952Y-112291904D01*
X194762380Y-112863333D01*
X194762380Y-112244285D01*
X197365952Y-113482380D02*
X196794523Y-113482380D01*
X197080238Y-113482380D02*
X197080238Y-112482380D01*
X196985000Y-112625238D01*
X196889761Y-112720476D01*
X196794523Y-112768095D01*
X197794523Y-113482380D02*
X197794523Y-112482380D01*
X197889761Y-113101428D02*
X198175476Y-113482380D01*
X198175476Y-112815714D02*
X197794523Y-113196666D01*
%TO.C,R4*%
X208097380Y-116371666D02*
X207621190Y-116705000D01*
X208097380Y-116943095D02*
X207097380Y-116943095D01*
X207097380Y-116562142D01*
X207145000Y-116466904D01*
X207192619Y-116419285D01*
X207287857Y-116371666D01*
X207430714Y-116371666D01*
X207525952Y-116419285D01*
X207573571Y-116466904D01*
X207621190Y-116562142D01*
X207621190Y-116943095D01*
X207430714Y-115514523D02*
X208097380Y-115514523D01*
X207049761Y-115752619D02*
X207764047Y-115990714D01*
X207764047Y-115371666D01*
X210700952Y-116657380D02*
X210129523Y-116657380D01*
X210415238Y-116657380D02*
X210415238Y-115657380D01*
X210320000Y-115800238D01*
X210224761Y-115895476D01*
X210129523Y-115943095D01*
X211129523Y-116657380D02*
X211129523Y-115657380D01*
X211224761Y-116276428D02*
X211510476Y-116657380D01*
X211510476Y-115990714D02*
X211129523Y-116371666D01*
%TO.C,R7*%
X181427380Y-116371666D02*
X180951190Y-116705000D01*
X181427380Y-116943095D02*
X180427380Y-116943095D01*
X180427380Y-116562142D01*
X180475000Y-116466904D01*
X180522619Y-116419285D01*
X180617857Y-116371666D01*
X180760714Y-116371666D01*
X180855952Y-116419285D01*
X180903571Y-116466904D01*
X180951190Y-116562142D01*
X180951190Y-116943095D01*
X180427380Y-116038333D02*
X180427380Y-115371666D01*
X181427380Y-115800238D01*
X183459523Y-115657380D02*
X183269047Y-115657380D01*
X183173809Y-115705000D01*
X183126190Y-115752619D01*
X183030952Y-115895476D01*
X182983333Y-116085952D01*
X182983333Y-116466904D01*
X183030952Y-116562142D01*
X183078571Y-116609761D01*
X183173809Y-116657380D01*
X183364285Y-116657380D01*
X183459523Y-116609761D01*
X183507142Y-116562142D01*
X183554761Y-116466904D01*
X183554761Y-116228809D01*
X183507142Y-116133571D01*
X183459523Y-116085952D01*
X183364285Y-116038333D01*
X183173809Y-116038333D01*
X183078571Y-116085952D01*
X183030952Y-116133571D01*
X182983333Y-116228809D01*
X184126190Y-116085952D02*
X184030952Y-116038333D01*
X183983333Y-115990714D01*
X183935714Y-115895476D01*
X183935714Y-115847857D01*
X183983333Y-115752619D01*
X184030952Y-115705000D01*
X184126190Y-115657380D01*
X184316666Y-115657380D01*
X184411904Y-115705000D01*
X184459523Y-115752619D01*
X184507142Y-115847857D01*
X184507142Y-115895476D01*
X184459523Y-115990714D01*
X184411904Y-116038333D01*
X184316666Y-116085952D01*
X184126190Y-116085952D01*
X184030952Y-116133571D01*
X183983333Y-116181190D01*
X183935714Y-116276428D01*
X183935714Y-116466904D01*
X183983333Y-116562142D01*
X184030952Y-116609761D01*
X184126190Y-116657380D01*
X184316666Y-116657380D01*
X184411904Y-116609761D01*
X184459523Y-116562142D01*
X184507142Y-116466904D01*
X184507142Y-116276428D01*
X184459523Y-116181190D01*
X184411904Y-116133571D01*
X184316666Y-116085952D01*
X184935714Y-116657380D02*
X184935714Y-115657380D01*
X185030952Y-116276428D02*
X185316666Y-116657380D01*
X185316666Y-115990714D02*
X184935714Y-116371666D01*
%TO.C,R8*%
X181427380Y-122721666D02*
X180951190Y-123055000D01*
X181427380Y-123293095D02*
X180427380Y-123293095D01*
X180427380Y-122912142D01*
X180475000Y-122816904D01*
X180522619Y-122769285D01*
X180617857Y-122721666D01*
X180760714Y-122721666D01*
X180855952Y-122769285D01*
X180903571Y-122816904D01*
X180951190Y-122912142D01*
X180951190Y-123293095D01*
X180855952Y-122150238D02*
X180808333Y-122245476D01*
X180760714Y-122293095D01*
X180665476Y-122340714D01*
X180617857Y-122340714D01*
X180522619Y-122293095D01*
X180475000Y-122245476D01*
X180427380Y-122150238D01*
X180427380Y-121959761D01*
X180475000Y-121864523D01*
X180522619Y-121816904D01*
X180617857Y-121769285D01*
X180665476Y-121769285D01*
X180760714Y-121816904D01*
X180808333Y-121864523D01*
X180855952Y-121959761D01*
X180855952Y-122150238D01*
X180903571Y-122245476D01*
X180951190Y-122293095D01*
X181046428Y-122340714D01*
X181236904Y-122340714D01*
X181332142Y-122293095D01*
X181379761Y-122245476D01*
X181427380Y-122150238D01*
X181427380Y-121959761D01*
X181379761Y-121864523D01*
X181332142Y-121816904D01*
X181236904Y-121769285D01*
X181046428Y-121769285D01*
X180951190Y-121816904D01*
X180903571Y-121864523D01*
X180855952Y-121959761D01*
X183459523Y-118832380D02*
X183269047Y-118832380D01*
X183173809Y-118880000D01*
X183126190Y-118927619D01*
X183030952Y-119070476D01*
X182983333Y-119260952D01*
X182983333Y-119641904D01*
X183030952Y-119737142D01*
X183078571Y-119784761D01*
X183173809Y-119832380D01*
X183364285Y-119832380D01*
X183459523Y-119784761D01*
X183507142Y-119737142D01*
X183554761Y-119641904D01*
X183554761Y-119403809D01*
X183507142Y-119308571D01*
X183459523Y-119260952D01*
X183364285Y-119213333D01*
X183173809Y-119213333D01*
X183078571Y-119260952D01*
X183030952Y-119308571D01*
X182983333Y-119403809D01*
X184126190Y-119260952D02*
X184030952Y-119213333D01*
X183983333Y-119165714D01*
X183935714Y-119070476D01*
X183935714Y-119022857D01*
X183983333Y-118927619D01*
X184030952Y-118880000D01*
X184126190Y-118832380D01*
X184316666Y-118832380D01*
X184411904Y-118880000D01*
X184459523Y-118927619D01*
X184507142Y-119022857D01*
X184507142Y-119070476D01*
X184459523Y-119165714D01*
X184411904Y-119213333D01*
X184316666Y-119260952D01*
X184126190Y-119260952D01*
X184030952Y-119308571D01*
X183983333Y-119356190D01*
X183935714Y-119451428D01*
X183935714Y-119641904D01*
X183983333Y-119737142D01*
X184030952Y-119784761D01*
X184126190Y-119832380D01*
X184316666Y-119832380D01*
X184411904Y-119784761D01*
X184459523Y-119737142D01*
X184507142Y-119641904D01*
X184507142Y-119451428D01*
X184459523Y-119356190D01*
X184411904Y-119308571D01*
X184316666Y-119260952D01*
X184935714Y-119832380D02*
X184935714Y-118832380D01*
X185030952Y-119451428D02*
X185316666Y-119832380D01*
X185316666Y-119165714D02*
X184935714Y-119546666D01*
%TO.C,R9*%
X181427380Y-129071666D02*
X180951190Y-129405000D01*
X181427380Y-129643095D02*
X180427380Y-129643095D01*
X180427380Y-129262142D01*
X180475000Y-129166904D01*
X180522619Y-129119285D01*
X180617857Y-129071666D01*
X180760714Y-129071666D01*
X180855952Y-129119285D01*
X180903571Y-129166904D01*
X180951190Y-129262142D01*
X180951190Y-129643095D01*
X181427380Y-128595476D02*
X181427380Y-128405000D01*
X181379761Y-128309761D01*
X181332142Y-128262142D01*
X181189285Y-128166904D01*
X180998809Y-128119285D01*
X180617857Y-128119285D01*
X180522619Y-128166904D01*
X180475000Y-128214523D01*
X180427380Y-128309761D01*
X180427380Y-128500238D01*
X180475000Y-128595476D01*
X180522619Y-128643095D01*
X180617857Y-128690714D01*
X180855952Y-128690714D01*
X180951190Y-128643095D01*
X180998809Y-128595476D01*
X181046428Y-128500238D01*
X181046428Y-128309761D01*
X180998809Y-128214523D01*
X180951190Y-128166904D01*
X180855952Y-128119285D01*
X183459523Y-128357380D02*
X183269047Y-128357380D01*
X183173809Y-128405000D01*
X183126190Y-128452619D01*
X183030952Y-128595476D01*
X182983333Y-128785952D01*
X182983333Y-129166904D01*
X183030952Y-129262142D01*
X183078571Y-129309761D01*
X183173809Y-129357380D01*
X183364285Y-129357380D01*
X183459523Y-129309761D01*
X183507142Y-129262142D01*
X183554761Y-129166904D01*
X183554761Y-128928809D01*
X183507142Y-128833571D01*
X183459523Y-128785952D01*
X183364285Y-128738333D01*
X183173809Y-128738333D01*
X183078571Y-128785952D01*
X183030952Y-128833571D01*
X182983333Y-128928809D01*
X184126190Y-128785952D02*
X184030952Y-128738333D01*
X183983333Y-128690714D01*
X183935714Y-128595476D01*
X183935714Y-128547857D01*
X183983333Y-128452619D01*
X184030952Y-128405000D01*
X184126190Y-128357380D01*
X184316666Y-128357380D01*
X184411904Y-128405000D01*
X184459523Y-128452619D01*
X184507142Y-128547857D01*
X184507142Y-128595476D01*
X184459523Y-128690714D01*
X184411904Y-128738333D01*
X184316666Y-128785952D01*
X184126190Y-128785952D01*
X184030952Y-128833571D01*
X183983333Y-128881190D01*
X183935714Y-128976428D01*
X183935714Y-129166904D01*
X183983333Y-129262142D01*
X184030952Y-129309761D01*
X184126190Y-129357380D01*
X184316666Y-129357380D01*
X184411904Y-129309761D01*
X184459523Y-129262142D01*
X184507142Y-129166904D01*
X184507142Y-128976428D01*
X184459523Y-128881190D01*
X184411904Y-128833571D01*
X184316666Y-128785952D01*
X184935714Y-129357380D02*
X184935714Y-128357380D01*
X185030952Y-128976428D02*
X185316666Y-129357380D01*
X185316666Y-128690714D02*
X184935714Y-129071666D01*
%TO.C,R10*%
X181427380Y-135897857D02*
X180951190Y-136231190D01*
X181427380Y-136469285D02*
X180427380Y-136469285D01*
X180427380Y-136088333D01*
X180475000Y-135993095D01*
X180522619Y-135945476D01*
X180617857Y-135897857D01*
X180760714Y-135897857D01*
X180855952Y-135945476D01*
X180903571Y-135993095D01*
X180951190Y-136088333D01*
X180951190Y-136469285D01*
X181427380Y-134945476D02*
X181427380Y-135516904D01*
X181427380Y-135231190D02*
X180427380Y-135231190D01*
X180570238Y-135326428D01*
X180665476Y-135421666D01*
X180713095Y-135516904D01*
X180427380Y-134326428D02*
X180427380Y-134231190D01*
X180475000Y-134135952D01*
X180522619Y-134088333D01*
X180617857Y-134040714D01*
X180808333Y-133993095D01*
X181046428Y-133993095D01*
X181236904Y-134040714D01*
X181332142Y-134088333D01*
X181379761Y-134135952D01*
X181427380Y-134231190D01*
X181427380Y-134326428D01*
X181379761Y-134421666D01*
X181332142Y-134469285D01*
X181236904Y-134516904D01*
X181046428Y-134564523D01*
X180808333Y-134564523D01*
X180617857Y-134516904D01*
X180522619Y-134469285D01*
X180475000Y-134421666D01*
X180427380Y-134326428D01*
X183459523Y-134707380D02*
X183269047Y-134707380D01*
X183173809Y-134755000D01*
X183126190Y-134802619D01*
X183030952Y-134945476D01*
X182983333Y-135135952D01*
X182983333Y-135516904D01*
X183030952Y-135612142D01*
X183078571Y-135659761D01*
X183173809Y-135707380D01*
X183364285Y-135707380D01*
X183459523Y-135659761D01*
X183507142Y-135612142D01*
X183554761Y-135516904D01*
X183554761Y-135278809D01*
X183507142Y-135183571D01*
X183459523Y-135135952D01*
X183364285Y-135088333D01*
X183173809Y-135088333D01*
X183078571Y-135135952D01*
X183030952Y-135183571D01*
X182983333Y-135278809D01*
X184126190Y-135135952D02*
X184030952Y-135088333D01*
X183983333Y-135040714D01*
X183935714Y-134945476D01*
X183935714Y-134897857D01*
X183983333Y-134802619D01*
X184030952Y-134755000D01*
X184126190Y-134707380D01*
X184316666Y-134707380D01*
X184411904Y-134755000D01*
X184459523Y-134802619D01*
X184507142Y-134897857D01*
X184507142Y-134945476D01*
X184459523Y-135040714D01*
X184411904Y-135088333D01*
X184316666Y-135135952D01*
X184126190Y-135135952D01*
X184030952Y-135183571D01*
X183983333Y-135231190D01*
X183935714Y-135326428D01*
X183935714Y-135516904D01*
X183983333Y-135612142D01*
X184030952Y-135659761D01*
X184126190Y-135707380D01*
X184316666Y-135707380D01*
X184411904Y-135659761D01*
X184459523Y-135612142D01*
X184507142Y-135516904D01*
X184507142Y-135326428D01*
X184459523Y-135231190D01*
X184411904Y-135183571D01*
X184316666Y-135135952D01*
X184935714Y-135707380D02*
X184935714Y-134707380D01*
X185030952Y-135326428D02*
X185316666Y-135707380D01*
X185316666Y-135040714D02*
X184935714Y-135421666D01*
%TO.C,R11*%
X181427380Y-120022857D02*
X180951190Y-120356190D01*
X181427380Y-120594285D02*
X180427380Y-120594285D01*
X180427380Y-120213333D01*
X180475000Y-120118095D01*
X180522619Y-120070476D01*
X180617857Y-120022857D01*
X180760714Y-120022857D01*
X180855952Y-120070476D01*
X180903571Y-120118095D01*
X180951190Y-120213333D01*
X180951190Y-120594285D01*
X181427380Y-119070476D02*
X181427380Y-119641904D01*
X181427380Y-119356190D02*
X180427380Y-119356190D01*
X180570238Y-119451428D01*
X180665476Y-119546666D01*
X180713095Y-119641904D01*
X181427380Y-118118095D02*
X181427380Y-118689523D01*
X181427380Y-118403809D02*
X180427380Y-118403809D01*
X180570238Y-118499047D01*
X180665476Y-118594285D01*
X180713095Y-118689523D01*
X183078571Y-123007380D02*
X182507142Y-123007380D01*
X182792857Y-123007380D02*
X182792857Y-122007380D01*
X182697619Y-122150238D01*
X182602380Y-122245476D01*
X182507142Y-122293095D01*
X183697619Y-122007380D02*
X183792857Y-122007380D01*
X183888095Y-122055000D01*
X183935714Y-122102619D01*
X183983333Y-122197857D01*
X184030952Y-122388333D01*
X184030952Y-122626428D01*
X183983333Y-122816904D01*
X183935714Y-122912142D01*
X183888095Y-122959761D01*
X183792857Y-123007380D01*
X183697619Y-123007380D01*
X183602380Y-122959761D01*
X183554761Y-122912142D01*
X183507142Y-122816904D01*
X183459523Y-122626428D01*
X183459523Y-122388333D01*
X183507142Y-122197857D01*
X183554761Y-122102619D01*
X183602380Y-122055000D01*
X183697619Y-122007380D01*
X184650000Y-122007380D02*
X184745238Y-122007380D01*
X184840476Y-122055000D01*
X184888095Y-122102619D01*
X184935714Y-122197857D01*
X184983333Y-122388333D01*
X184983333Y-122626428D01*
X184935714Y-122816904D01*
X184888095Y-122912142D01*
X184840476Y-122959761D01*
X184745238Y-123007380D01*
X184650000Y-123007380D01*
X184554761Y-122959761D01*
X184507142Y-122912142D01*
X184459523Y-122816904D01*
X184411904Y-122626428D01*
X184411904Y-122388333D01*
X184459523Y-122197857D01*
X184507142Y-122102619D01*
X184554761Y-122055000D01*
X184650000Y-122007380D01*
X185411904Y-123007380D02*
X185411904Y-122007380D01*
X185507142Y-122626428D02*
X185792857Y-123007380D01*
X185792857Y-122340714D02*
X185411904Y-122721666D01*
%TO.C,R12*%
X194762380Y-116847857D02*
X194286190Y-117181190D01*
X194762380Y-117419285D02*
X193762380Y-117419285D01*
X193762380Y-117038333D01*
X193810000Y-116943095D01*
X193857619Y-116895476D01*
X193952857Y-116847857D01*
X194095714Y-116847857D01*
X194190952Y-116895476D01*
X194238571Y-116943095D01*
X194286190Y-117038333D01*
X194286190Y-117419285D01*
X194762380Y-115895476D02*
X194762380Y-116466904D01*
X194762380Y-116181190D02*
X193762380Y-116181190D01*
X193905238Y-116276428D01*
X194000476Y-116371666D01*
X194048095Y-116466904D01*
X193857619Y-115514523D02*
X193810000Y-115466904D01*
X193762380Y-115371666D01*
X193762380Y-115133571D01*
X193810000Y-115038333D01*
X193857619Y-114990714D01*
X193952857Y-114943095D01*
X194048095Y-114943095D01*
X194190952Y-114990714D01*
X194762380Y-115562142D01*
X194762380Y-114943095D01*
X196413571Y-116657380D02*
X195842142Y-116657380D01*
X196127857Y-116657380D02*
X196127857Y-115657380D01*
X196032619Y-115800238D01*
X195937380Y-115895476D01*
X195842142Y-115943095D01*
X197032619Y-115657380D02*
X197127857Y-115657380D01*
X197223095Y-115705000D01*
X197270714Y-115752619D01*
X197318333Y-115847857D01*
X197365952Y-116038333D01*
X197365952Y-116276428D01*
X197318333Y-116466904D01*
X197270714Y-116562142D01*
X197223095Y-116609761D01*
X197127857Y-116657380D01*
X197032619Y-116657380D01*
X196937380Y-116609761D01*
X196889761Y-116562142D01*
X196842142Y-116466904D01*
X196794523Y-116276428D01*
X196794523Y-116038333D01*
X196842142Y-115847857D01*
X196889761Y-115752619D01*
X196937380Y-115705000D01*
X197032619Y-115657380D01*
X197985000Y-115657380D02*
X198080238Y-115657380D01*
X198175476Y-115705000D01*
X198223095Y-115752619D01*
X198270714Y-115847857D01*
X198318333Y-116038333D01*
X198318333Y-116276428D01*
X198270714Y-116466904D01*
X198223095Y-116562142D01*
X198175476Y-116609761D01*
X198080238Y-116657380D01*
X197985000Y-116657380D01*
X197889761Y-116609761D01*
X197842142Y-116562142D01*
X197794523Y-116466904D01*
X197746904Y-116276428D01*
X197746904Y-116038333D01*
X197794523Y-115847857D01*
X197842142Y-115752619D01*
X197889761Y-115705000D01*
X197985000Y-115657380D01*
X198746904Y-116657380D02*
X198746904Y-115657380D01*
X198842142Y-116276428D02*
X199127857Y-116657380D01*
X199127857Y-115990714D02*
X198746904Y-116371666D01*
%TO.C,R13*%
X181427380Y-126372857D02*
X180951190Y-126706190D01*
X181427380Y-126944285D02*
X180427380Y-126944285D01*
X180427380Y-126563333D01*
X180475000Y-126468095D01*
X180522619Y-126420476D01*
X180617857Y-126372857D01*
X180760714Y-126372857D01*
X180855952Y-126420476D01*
X180903571Y-126468095D01*
X180951190Y-126563333D01*
X180951190Y-126944285D01*
X181427380Y-125420476D02*
X181427380Y-125991904D01*
X181427380Y-125706190D02*
X180427380Y-125706190D01*
X180570238Y-125801428D01*
X180665476Y-125896666D01*
X180713095Y-125991904D01*
X180427380Y-125087142D02*
X180427380Y-124468095D01*
X180808333Y-124801428D01*
X180808333Y-124658571D01*
X180855952Y-124563333D01*
X180903571Y-124515714D01*
X180998809Y-124468095D01*
X181236904Y-124468095D01*
X181332142Y-124515714D01*
X181379761Y-124563333D01*
X181427380Y-124658571D01*
X181427380Y-124944285D01*
X181379761Y-125039523D01*
X181332142Y-125087142D01*
X183078571Y-126182380D02*
X182507142Y-126182380D01*
X182792857Y-126182380D02*
X182792857Y-125182380D01*
X182697619Y-125325238D01*
X182602380Y-125420476D01*
X182507142Y-125468095D01*
X183697619Y-125182380D02*
X183792857Y-125182380D01*
X183888095Y-125230000D01*
X183935714Y-125277619D01*
X183983333Y-125372857D01*
X184030952Y-125563333D01*
X184030952Y-125801428D01*
X183983333Y-125991904D01*
X183935714Y-126087142D01*
X183888095Y-126134761D01*
X183792857Y-126182380D01*
X183697619Y-126182380D01*
X183602380Y-126134761D01*
X183554761Y-126087142D01*
X183507142Y-125991904D01*
X183459523Y-125801428D01*
X183459523Y-125563333D01*
X183507142Y-125372857D01*
X183554761Y-125277619D01*
X183602380Y-125230000D01*
X183697619Y-125182380D01*
X184650000Y-125182380D02*
X184745238Y-125182380D01*
X184840476Y-125230000D01*
X184888095Y-125277619D01*
X184935714Y-125372857D01*
X184983333Y-125563333D01*
X184983333Y-125801428D01*
X184935714Y-125991904D01*
X184888095Y-126087142D01*
X184840476Y-126134761D01*
X184745238Y-126182380D01*
X184650000Y-126182380D01*
X184554761Y-126134761D01*
X184507142Y-126087142D01*
X184459523Y-125991904D01*
X184411904Y-125801428D01*
X184411904Y-125563333D01*
X184459523Y-125372857D01*
X184507142Y-125277619D01*
X184554761Y-125230000D01*
X184650000Y-125182380D01*
X185411904Y-126182380D02*
X185411904Y-125182380D01*
X185507142Y-125801428D02*
X185792857Y-126182380D01*
X185792857Y-125515714D02*
X185411904Y-125896666D01*
%TO.C,U2*%
X194397380Y-123951904D02*
X195206904Y-123951904D01*
X195302142Y-123904285D01*
X195349761Y-123856666D01*
X195397380Y-123761428D01*
X195397380Y-123570952D01*
X195349761Y-123475714D01*
X195302142Y-123428095D01*
X195206904Y-123380476D01*
X194397380Y-123380476D01*
X194492619Y-122951904D02*
X194445000Y-122904285D01*
X194397380Y-122809047D01*
X194397380Y-122570952D01*
X194445000Y-122475714D01*
X194492619Y-122428095D01*
X194587857Y-122380476D01*
X194683095Y-122380476D01*
X194825952Y-122428095D01*
X195397380Y-122999523D01*
X195397380Y-122380476D01*
X195302142Y-130365238D02*
X195349761Y-130412857D01*
X195397380Y-130555714D01*
X195397380Y-130650952D01*
X195349761Y-130793809D01*
X195254523Y-130889047D01*
X195159285Y-130936666D01*
X194968809Y-130984285D01*
X194825952Y-130984285D01*
X194635476Y-130936666D01*
X194540238Y-130889047D01*
X194445000Y-130793809D01*
X194397380Y-130650952D01*
X194397380Y-130555714D01*
X194445000Y-130412857D01*
X194492619Y-130365238D01*
X195397380Y-129936666D02*
X194397380Y-129936666D01*
X194397380Y-129698571D01*
X194445000Y-129555714D01*
X194540238Y-129460476D01*
X194635476Y-129412857D01*
X194825952Y-129365238D01*
X194968809Y-129365238D01*
X195159285Y-129412857D01*
X195254523Y-129460476D01*
X195349761Y-129555714D01*
X195397380Y-129698571D01*
X195397380Y-129936666D01*
X194730714Y-128508095D02*
X195397380Y-128508095D01*
X194349761Y-128746190D02*
X195064047Y-128984285D01*
X195064047Y-128365238D01*
X194397380Y-127793809D02*
X194397380Y-127698571D01*
X194445000Y-127603333D01*
X194492619Y-127555714D01*
X194587857Y-127508095D01*
X194778333Y-127460476D01*
X195016428Y-127460476D01*
X195206904Y-127508095D01*
X195302142Y-127555714D01*
X195349761Y-127603333D01*
X195397380Y-127698571D01*
X195397380Y-127793809D01*
X195349761Y-127889047D01*
X195302142Y-127936666D01*
X195206904Y-127984285D01*
X195016428Y-128031904D01*
X194778333Y-128031904D01*
X194587857Y-127984285D01*
X194492619Y-127936666D01*
X194445000Y-127889047D01*
X194397380Y-127793809D01*
X194397380Y-126603333D02*
X194397380Y-126793809D01*
X194445000Y-126889047D01*
X194492619Y-126936666D01*
X194635476Y-127031904D01*
X194825952Y-127079523D01*
X195206904Y-127079523D01*
X195302142Y-127031904D01*
X195349761Y-126984285D01*
X195397380Y-126889047D01*
X195397380Y-126698571D01*
X195349761Y-126603333D01*
X195302142Y-126555714D01*
X195206904Y-126508095D01*
X194968809Y-126508095D01*
X194873571Y-126555714D01*
X194825952Y-126603333D01*
X194778333Y-126698571D01*
X194778333Y-126889047D01*
X194825952Y-126984285D01*
X194873571Y-127031904D01*
X194968809Y-127079523D01*
X194397380Y-125650952D02*
X194397380Y-125841428D01*
X194445000Y-125936666D01*
X194492619Y-125984285D01*
X194635476Y-126079523D01*
X194825952Y-126127142D01*
X195206904Y-126127142D01*
X195302142Y-126079523D01*
X195349761Y-126031904D01*
X195397380Y-125936666D01*
X195397380Y-125746190D01*
X195349761Y-125650952D01*
X195302142Y-125603333D01*
X195206904Y-125555714D01*
X194968809Y-125555714D01*
X194873571Y-125603333D01*
X194825952Y-125650952D01*
X194778333Y-125746190D01*
X194778333Y-125936666D01*
X194825952Y-126031904D01*
X194873571Y-126079523D01*
X194968809Y-126127142D01*
%TO.C,R5*%
X217638333Y-131262380D02*
X217305000Y-130786190D01*
X217066904Y-131262380D02*
X217066904Y-130262380D01*
X217447857Y-130262380D01*
X217543095Y-130310000D01*
X217590714Y-130357619D01*
X217638333Y-130452857D01*
X217638333Y-130595714D01*
X217590714Y-130690952D01*
X217543095Y-130738571D01*
X217447857Y-130786190D01*
X217066904Y-130786190D01*
X218543095Y-130262380D02*
X218066904Y-130262380D01*
X218019285Y-130738571D01*
X218066904Y-130690952D01*
X218162142Y-130643333D01*
X218400238Y-130643333D01*
X218495476Y-130690952D01*
X218543095Y-130738571D01*
X218590714Y-130833809D01*
X218590714Y-131071904D01*
X218543095Y-131167142D01*
X218495476Y-131214761D01*
X218400238Y-131262380D01*
X218162142Y-131262380D01*
X218066904Y-131214761D01*
X218019285Y-131167142D01*
X218257380Y-134104047D02*
X218257380Y-134675476D01*
X218257380Y-134389761D02*
X217257380Y-134389761D01*
X217400238Y-134485000D01*
X217495476Y-134580238D01*
X217543095Y-134675476D01*
X218257380Y-133675476D02*
X217257380Y-133675476D01*
X217876428Y-133580238D02*
X218257380Y-133294523D01*
X217590714Y-133294523D02*
X217971666Y-133675476D01*
%TO.C,R6*%
X202398333Y-135072380D02*
X202065000Y-134596190D01*
X201826904Y-135072380D02*
X201826904Y-134072380D01*
X202207857Y-134072380D01*
X202303095Y-134120000D01*
X202350714Y-134167619D01*
X202398333Y-134262857D01*
X202398333Y-134405714D01*
X202350714Y-134500952D01*
X202303095Y-134548571D01*
X202207857Y-134596190D01*
X201826904Y-134596190D01*
X203255476Y-134072380D02*
X203065000Y-134072380D01*
X202969761Y-134120000D01*
X202922142Y-134167619D01*
X202826904Y-134310476D01*
X202779285Y-134500952D01*
X202779285Y-134881904D01*
X202826904Y-134977142D01*
X202874523Y-135024761D01*
X202969761Y-135072380D01*
X203160238Y-135072380D01*
X203255476Y-135024761D01*
X203303095Y-134977142D01*
X203350714Y-134881904D01*
X203350714Y-134643809D01*
X203303095Y-134548571D01*
X203255476Y-134500952D01*
X203160238Y-134453333D01*
X202969761Y-134453333D01*
X202874523Y-134500952D01*
X202826904Y-134548571D01*
X202779285Y-134643809D01*
X203017380Y-131564047D02*
X203017380Y-132135476D01*
X203017380Y-131849761D02*
X202017380Y-131849761D01*
X202160238Y-131945000D01*
X202255476Y-132040238D01*
X202303095Y-132135476D01*
X203017380Y-131135476D02*
X202017380Y-131135476D01*
X202636428Y-131040238D02*
X203017380Y-130754523D01*
X202350714Y-130754523D02*
X202731666Y-131135476D01*
%TD*%
M02*
