M48
INCH,TZ
T1C0.0157
T2C0.0236
T3C0.0315
T4C0.0400
T5C0.1200
%
G90
G05
T1
X67715Y-46035
X68285Y-45500
X70250Y-54500
X70750Y-44150
X70750Y-45500
X70811Y-50956
X70811Y-51750
X71200Y-44150
X71200Y-45400
X75500Y-43500
X77215Y-49722
X77250Y-38939
X77250Y-39561
X77500Y-52500
X77500Y-50000
X77535Y-49000
X80500Y-45100
X83000Y-51000
X83215Y-46000
X83500Y-46465
X84500Y-39965
X84500Y-40535
T2
X65750Y-43963
X65750Y-44750
T3
X75250Y-44500
X79250Y-44500
X70000Y-53250
X74000Y-53250
X70000Y-52000
X74000Y-52000
X70000Y-48250
X74000Y-48250
X70000Y-44500
X74000Y-44500
X85750Y-50750
X85750Y-53750
X65750Y-46250
X65750Y-47250
X65750Y-48250
X65750Y-49250
X65750Y-50250
X65750Y-51250
X65750Y-52250
X65750Y-53250
X68750Y-46250
X68750Y-47250
X68750Y-48250
X68750Y-49250
X68750Y-50250
X68750Y-51250
X68750Y-52250
X68750Y-53250
X79750Y-50750
X79750Y-53750
X75250Y-45750
X79250Y-45750
X80500Y-44500
X84500Y-44500
X70000Y-50750
X74000Y-50750
X85750Y-47500
X85750Y-49469
X81250Y-47500
X81250Y-48500
X81250Y-49500
X81250Y-50500
X81250Y-51500
X81250Y-52500
X81250Y-53500
X84250Y-47500
X84250Y-48500
X84250Y-49500
X84250Y-50500
X84250Y-51500
X84250Y-52500
X84250Y-53500
X80500Y-45750
X84500Y-45750
X75250Y-47500
X75250Y-48500
X75250Y-49500
X75250Y-50500
X75250Y-51500
X75250Y-52500
X75250Y-53500
X78250Y-47500
X78250Y-48500
X78250Y-49500
X78250Y-50500
X78250Y-51500
X78250Y-52500
X78250Y-53500
X70000Y-45750
X74000Y-45750
X79750Y-47500
X79750Y-49469
X70000Y-49500
X74000Y-49500
X70000Y-47000
X74000Y-47000
T4
X79750Y-40250
X79750Y-41250
X80750Y-40250
X80750Y-41250
X81750Y-40250
X81750Y-41250
X82750Y-40250
X82750Y-41250
X83750Y-40250
X83750Y-41250
X68250Y-40250
X68250Y-41250
X69250Y-40250
X69250Y-41250
X70250Y-40250
X70250Y-41250
X71250Y-40250
X71250Y-41250
X72250Y-40250
X72250Y-41250
T5
X76000Y-40750
T0
M30
