%TF.GenerationSoftware,KiCad,Pcbnew,(5.1.8)-1*%
%TF.CreationDate,2021-02-01T15:37:02+01:00*%
%TF.ProjectId,Apple II Adapter,4170706c-6520-4494-9920-416461707465,rev?*%
%TF.SameCoordinates,Original*%
%TF.FileFunction,Copper,L1,Top*%
%TF.FilePolarity,Positive*%
%FSLAX46Y46*%
G04 Gerber Fmt 4.6, Leading zero omitted, Abs format (unit mm)*
G04 Created by KiCad (PCBNEW (5.1.8)-1) date 2021-02-01 15:37:02*
%MOMM*%
%LPD*%
G01*
G04 APERTURE LIST*
%TA.AperFunction,ComponentPad*%
%ADD10O,2.400000X1.600000*%
%TD*%
%TA.AperFunction,ComponentPad*%
%ADD11R,2.400000X1.600000*%
%TD*%
%TA.AperFunction,ComponentPad*%
%ADD12O,1.600000X1.600000*%
%TD*%
%TA.AperFunction,ComponentPad*%
%ADD13C,1.600000*%
%TD*%
%TA.AperFunction,ComponentPad*%
%ADD14R,1.200000X1.200000*%
%TD*%
%TA.AperFunction,ComponentPad*%
%ADD15C,1.200000*%
%TD*%
%TA.AperFunction,ComponentPad*%
%ADD16O,1.727200X1.727200*%
%TD*%
%TA.AperFunction,ComponentPad*%
%ADD17R,1.727200X1.727200*%
%TD*%
%TA.AperFunction,ComponentPad*%
%ADD18C,3.500000*%
%TD*%
%TA.AperFunction,ViaPad*%
%ADD19C,0.800000*%
%TD*%
%TA.AperFunction,Conductor*%
%ADD20C,0.381000*%
%TD*%
%TA.AperFunction,Conductor*%
%ADD21C,0.250000*%
%TD*%
G04 APERTURE END LIST*
D10*
%TO.P,A1,16*%
%TO.N,N/C*%
X174625000Y-117475000D03*
%TO.P,A1,8*%
%TO.N,GND*%
X167005000Y-135255000D03*
%TO.P,A1,15*%
%TO.N,N/C*%
X174625000Y-120015000D03*
%TO.P,A1,7*%
%TO.N,/GC2*%
X167005000Y-132715000D03*
%TO.P,A1,14*%
%TO.N,N/C*%
X174625000Y-122555000D03*
%TO.P,A1,6*%
%TO.N,/GC0*%
X167005000Y-130175000D03*
%TO.P,A1,13*%
%TO.N,N/C*%
X174625000Y-125095000D03*
%TO.P,A1,5*%
X167005000Y-127635000D03*
%TO.P,A1,12*%
X174625000Y-127635000D03*
%TO.P,A1,4*%
X167005000Y-125095000D03*
%TO.P,A1,11*%
%TO.N,/GC3*%
X174625000Y-130175000D03*
%TO.P,A1,3*%
%TO.N,/P2_FIRE*%
X167005000Y-122555000D03*
%TO.P,A1,10*%
%TO.N,/GC1*%
X174625000Y-132715000D03*
%TO.P,A1,2*%
%TO.N,/P1_FIRE*%
X167005000Y-120015000D03*
%TO.P,A1,9*%
%TO.N,N/C*%
X174625000Y-135255000D03*
D11*
%TO.P,A1,1*%
%TO.N,VCC*%
X167005000Y-117475000D03*
%TD*%
D12*
%TO.P,R3,2*%
%TO.N,/P1_DOWN*%
X204470000Y-113030000D03*
D13*
%TO.P,R3,1*%
%TO.N,GND*%
X214630000Y-113030000D03*
%TD*%
%TO.P,C2,2*%
%TO.N,GND*%
X202565000Y-125650000D03*
%TO.P,C2,1*%
%TO.N,VCC*%
X202565000Y-120650000D03*
%TD*%
%TO.P,R14,1*%
%TO.N,/GC2*%
X177800000Y-132080000D03*
D12*
%TO.P,R14,2*%
%TO.N,/P2_UP*%
X187960000Y-132080000D03*
%TD*%
D11*
%TO.P,U1,1*%
%TO.N,/P1_DOWN*%
X206375000Y-120650000D03*
D10*
%TO.P,U1,8*%
%TO.N,N/C*%
X213995000Y-135890000D03*
%TO.P,U1,2*%
%TO.N,Net-(U1-Pad2)*%
X206375000Y-123190000D03*
%TO.P,U1,9*%
%TO.N,GND*%
X213995000Y-133350000D03*
%TO.P,U1,3*%
%TO.N,/P1_RIGHT*%
X206375000Y-125730000D03*
%TO.P,U1,10*%
%TO.N,Net-(U1-Pad10)*%
X213995000Y-130810000D03*
%TO.P,U1,4*%
%TO.N,Net-(U1-Pad4)*%
X206375000Y-128270000D03*
%TO.P,U1,11*%
%TO.N,/P2_RIGHT*%
X213995000Y-128270000D03*
%TO.P,U1,5*%
%TO.N,GND*%
X206375000Y-130810000D03*
%TO.P,U1,12*%
%TO.N,Net-(U1-Pad12)*%
X213995000Y-125730000D03*
%TO.P,U1,6*%
%TO.N,N/C*%
X206375000Y-133350000D03*
%TO.P,U1,13*%
%TO.N,/P2_DOWN*%
X213995000Y-123190000D03*
%TO.P,U1,7*%
%TO.N,GND*%
X206375000Y-135890000D03*
%TO.P,U1,14*%
%TO.N,VCC*%
X213995000Y-120650000D03*
%TD*%
D13*
%TO.P,C1,1*%
%TO.N,VCC*%
X217805000Y-120650000D03*
%TO.P,C1,2*%
%TO.N,GND*%
X217805000Y-125650000D03*
%TD*%
D14*
%TO.P,C3,1*%
%TO.N,VCC*%
X167005000Y-113665000D03*
D15*
%TO.P,C3,2*%
%TO.N,GND*%
X167005000Y-111665000D03*
%TD*%
D16*
%TO.P,J1,10*%
%TO.N,N/C*%
X173355000Y-104775000D03*
%TO.P,J1,9*%
X175895000Y-104775000D03*
%TO.P,J1,8*%
%TO.N,VCC*%
X178435000Y-104775000D03*
%TO.P,J1,7*%
%TO.N,N/C*%
X180975000Y-104775000D03*
%TO.P,J1,6*%
%TO.N,/P1_FIRE*%
X183515000Y-104775000D03*
%TO.P,J1,5*%
%TO.N,N/C*%
X173355000Y-102235000D03*
%TO.P,J1,4*%
%TO.N,/P1_RIGHT*%
X175895000Y-102235000D03*
%TO.P,J1,3*%
%TO.N,/P1_LEFT*%
X178435000Y-102235000D03*
%TO.P,J1,2*%
%TO.N,/P1_DOWN*%
X180975000Y-102235000D03*
D17*
%TO.P,J1,1*%
%TO.N,/P1_UP*%
X183515000Y-102235000D03*
%TD*%
%TO.P,J2,1*%
%TO.N,/P2_UP*%
X212725000Y-102235000D03*
D16*
%TO.P,J2,2*%
%TO.N,/P2_DOWN*%
X210185000Y-102235000D03*
%TO.P,J2,3*%
%TO.N,/P2_LEFT*%
X207645000Y-102235000D03*
%TO.P,J2,4*%
%TO.N,/P2_RIGHT*%
X205105000Y-102235000D03*
%TO.P,J2,5*%
%TO.N,N/C*%
X202565000Y-102235000D03*
%TO.P,J2,6*%
%TO.N,/P2_FIRE*%
X212725000Y-104775000D03*
%TO.P,J2,7*%
%TO.N,N/C*%
X210185000Y-104775000D03*
%TO.P,J2,8*%
%TO.N,VCC*%
X207645000Y-104775000D03*
%TO.P,J2,9*%
%TO.N,N/C*%
X205105000Y-104775000D03*
%TO.P,J2,10*%
X202565000Y-104775000D03*
%TD*%
D13*
%TO.P,R1,1*%
%TO.N,GND*%
X187960000Y-113030000D03*
D12*
%TO.P,R1,2*%
%TO.N,/P1_FIRE*%
X177800000Y-113030000D03*
%TD*%
%TO.P,R2,2*%
%TO.N,/P2_FIRE*%
X191135000Y-113030000D03*
D13*
%TO.P,R2,1*%
%TO.N,GND*%
X201295000Y-113030000D03*
%TD*%
%TO.P,R4,1*%
%TO.N,GND*%
X214630000Y-116205000D03*
D12*
%TO.P,R4,2*%
%TO.N,/P1_RIGHT*%
X204470000Y-116205000D03*
%TD*%
%TO.P,R7,2*%
%TO.N,VCC*%
X177800000Y-116205000D03*
D13*
%TO.P,R7,1*%
%TO.N,/P1_UP*%
X187960000Y-116205000D03*
%TD*%
%TO.P,R8,1*%
%TO.N,/P1_LEFT*%
X187960000Y-122555000D03*
D12*
%TO.P,R8,2*%
%TO.N,VCC*%
X177800000Y-122555000D03*
%TD*%
D13*
%TO.P,R9,1*%
%TO.N,/P2_LEFT*%
X187960000Y-128905000D03*
D12*
%TO.P,R9,2*%
%TO.N,VCC*%
X177800000Y-128905000D03*
%TD*%
%TO.P,R10,2*%
%TO.N,VCC*%
X177800000Y-135255000D03*
D13*
%TO.P,R10,1*%
%TO.N,/P2_UP*%
X187960000Y-135255000D03*
%TD*%
%TO.P,R11,1*%
%TO.N,/GC0*%
X177800000Y-119380000D03*
D12*
%TO.P,R11,2*%
%TO.N,/P1_LEFT*%
X187960000Y-119380000D03*
%TD*%
%TO.P,R12,2*%
%TO.N,/P1_UP*%
X191135000Y-116205000D03*
D13*
%TO.P,R12,1*%
%TO.N,/GC1*%
X201295000Y-116205000D03*
%TD*%
%TO.P,R13,1*%
%TO.N,/GC3*%
X177800000Y-125730000D03*
D12*
%TO.P,R13,2*%
%TO.N,/P2_LEFT*%
X187960000Y-125730000D03*
%TD*%
D10*
%TO.P,U2,14*%
%TO.N,VCC*%
X198755000Y-120650000D03*
%TO.P,U2,7*%
%TO.N,GND*%
X191135000Y-135890000D03*
%TO.P,U2,13*%
%TO.N,Net-(U1-Pad4)*%
X198755000Y-123190000D03*
%TO.P,U2,6*%
%TO.N,Net-(U1-Pad12)*%
X191135000Y-133350000D03*
%TO.P,U2,12*%
%TO.N,Net-(U1-Pad10)*%
X198755000Y-125730000D03*
%TO.P,U2,5*%
%TO.N,Net-(U1-Pad2)*%
X191135000Y-130810000D03*
%TO.P,U2,11*%
%TO.N,/P2_LEFT*%
X198755000Y-128270000D03*
%TO.P,U2,4*%
%TO.N,/P1_UP*%
X191135000Y-128270000D03*
%TO.P,U2,10*%
%TO.N,/GC3*%
X198755000Y-130810000D03*
%TO.P,U2,3*%
%TO.N,/GC1*%
X191135000Y-125730000D03*
%TO.P,U2,9*%
%TO.N,/P2_UP*%
X198755000Y-133350000D03*
%TO.P,U2,2*%
%TO.N,/P1_LEFT*%
X191135000Y-123190000D03*
%TO.P,U2,8*%
%TO.N,/GC2*%
X198755000Y-135890000D03*
D11*
%TO.P,U2,1*%
%TO.N,/GC0*%
X191135000Y-120650000D03*
%TD*%
D18*
%TO.P,M1,1*%
%TO.N,N/C*%
X193040000Y-103505000D03*
%TD*%
D12*
%TO.P,R5,2*%
%TO.N,/P2_DOWN*%
X217805000Y-128905000D03*
D13*
%TO.P,R5,1*%
%TO.N,GND*%
X217805000Y-136525000D03*
%TD*%
%TO.P,R6,1*%
%TO.N,GND*%
X202565000Y-128905000D03*
D12*
%TO.P,R6,2*%
%TO.N,/P2_RIGHT*%
X202565000Y-136525000D03*
%TD*%
D19*
%TO.N,VCC*%
X178435000Y-138430000D03*
%TO.N,/P2_FIRE*%
X191770000Y-110490000D03*
X196215000Y-100485500D03*
X196215000Y-98904500D03*
X214630000Y-101510000D03*
X214630000Y-102960000D03*
%TO.N,/GC3*%
X179860500Y-129429070D03*
X179860500Y-131445000D03*
%TO.N,/P1_DOWN*%
X180848010Y-115315990D03*
X204470000Y-114554000D03*
X180848010Y-112141010D03*
%TO.N,/P1_LEFT*%
X179705000Y-115570000D03*
X179705000Y-112141018D03*
%TO.N,/P2_UP*%
X196125000Y-126292892D03*
X196849986Y-133350000D03*
X196940000Y-124460000D03*
%TO.N,/P2_DOWN*%
X212090000Y-118020000D03*
%TO.N,/P2_LEFT*%
X196850000Y-127000000D03*
%TO.N,/P2_RIGHT*%
X211365000Y-116840000D03*
%TO.N,Net-(U1-Pad10)*%
X210820000Y-129540000D03*
%TD*%
D20*
%TO.N,VCC*%
X163830000Y-117475000D02*
X167005000Y-117475000D01*
X213995000Y-120650000D02*
X217805000Y-120650000D01*
X218440000Y-138430000D02*
X178435000Y-138430000D01*
X163830000Y-117475000D02*
X163830000Y-137795000D01*
X163830000Y-137795000D02*
X164465000Y-138430000D01*
X164465000Y-138430000D02*
X178435000Y-138430000D01*
X219075000Y-137795000D02*
X218440000Y-138430000D01*
X198755000Y-120650000D02*
X202565000Y-120650000D01*
X218440000Y-120650000D02*
X219075000Y-121285000D01*
X217805000Y-120650000D02*
X218440000Y-120650000D01*
X219075000Y-121285000D02*
X219075000Y-137795000D01*
X202565000Y-120650000D02*
X202565000Y-121285000D01*
X202565000Y-121285000D02*
X203200000Y-121920000D01*
X212725000Y-121920000D02*
X213995000Y-120650000D01*
X203200000Y-121920000D02*
X212725000Y-121920000D01*
X167005000Y-117475000D02*
X167005000Y-113665000D01*
X181610000Y-99695000D02*
X164465000Y-99695000D01*
X164465000Y-99695000D02*
X163830000Y-100330000D01*
X207645000Y-104775000D02*
X208915000Y-103505000D01*
X208915000Y-103505000D02*
X208915000Y-100330000D01*
X208915000Y-100330000D02*
X208280000Y-99695000D01*
X181610000Y-99695000D02*
X208280000Y-99695000D01*
X164465000Y-106680000D02*
X163830000Y-107315000D01*
X177800000Y-106680000D02*
X164465000Y-106680000D01*
X163830000Y-107315000D02*
X163830000Y-100330000D01*
X163830000Y-117475000D02*
X163830000Y-107315000D01*
X178435000Y-106045000D02*
X177800000Y-106680000D01*
X178435000Y-104775000D02*
X178435000Y-106045000D01*
D21*
%TO.N,/P2_FIRE*%
X191135000Y-112395000D02*
X191135000Y-113030000D01*
X191770000Y-110490000D02*
X195580000Y-110490000D01*
X196215000Y-109855000D02*
X196215000Y-100485500D01*
X195580000Y-110490000D02*
X196215000Y-109855000D01*
X196215000Y-98904500D02*
X196694500Y-98425000D01*
X196694500Y-98425000D02*
X213995000Y-98425000D01*
X214630000Y-99060000D02*
X214630000Y-101510000D01*
X213995000Y-98425000D02*
X214630000Y-99060000D01*
X214630000Y-102960000D02*
X214630000Y-104140000D01*
X213995000Y-104775000D02*
X212725000Y-104775000D01*
X214630000Y-104140000D02*
X213995000Y-104775000D01*
X171450000Y-122555000D02*
X167005000Y-122555000D01*
X172085000Y-114935000D02*
X172085000Y-121920000D01*
X181483000Y-114554000D02*
X172466000Y-114554000D01*
X182245000Y-116967000D02*
X182245000Y-115316000D01*
X172085000Y-121920000D02*
X171450000Y-122555000D01*
X182753000Y-117475000D02*
X182245000Y-116967000D01*
X172466000Y-114554000D02*
X172085000Y-114935000D01*
X188976000Y-117475000D02*
X182753000Y-117475000D01*
X182245000Y-115316000D02*
X181483000Y-114554000D01*
X189611000Y-116840000D02*
X188976000Y-117475000D01*
X189611000Y-114554000D02*
X189611000Y-116840000D01*
X191135000Y-113030000D02*
X189611000Y-114554000D01*
%TO.N,/GC1*%
X187325000Y-127000000D02*
X189865000Y-127000000D01*
X186690000Y-127635000D02*
X187325000Y-127000000D01*
X189865000Y-127000000D02*
X191135000Y-125730000D01*
X186690000Y-129540000D02*
X186690000Y-127635000D01*
X177165000Y-130175000D02*
X186055000Y-130175000D01*
X176530000Y-130810000D02*
X177165000Y-130175000D01*
X186055000Y-130175000D02*
X186690000Y-129540000D01*
X176530000Y-132080000D02*
X176530000Y-130810000D01*
X175895000Y-132715000D02*
X176530000Y-132080000D01*
X174625000Y-132715000D02*
X175895000Y-132715000D01*
X193040000Y-125275000D02*
X192585000Y-125730000D01*
X192585000Y-125730000D02*
X191135000Y-125730000D01*
X193040000Y-118110705D02*
X193040000Y-125275000D01*
X194945705Y-116205000D02*
X193040000Y-118110705D01*
X201295000Y-116205000D02*
X194945705Y-116205000D01*
%TO.N,/P1_FIRE*%
X177800000Y-113030000D02*
X182753000Y-113030000D01*
X183515000Y-112268000D02*
X183515000Y-104775000D01*
X182753000Y-113030000D02*
X183515000Y-112268000D01*
X170815000Y-120015000D02*
X167005000Y-120015000D01*
X171450000Y-119380000D02*
X170815000Y-120015000D01*
X171450000Y-113665000D02*
X171450000Y-119380000D01*
X172085000Y-113030000D02*
X171450000Y-113665000D01*
X177800000Y-113030000D02*
X172085000Y-113030000D01*
%TO.N,/GC3*%
X175895000Y-130175000D02*
X174625000Y-130175000D01*
X176530000Y-129540000D02*
X175895000Y-130175000D01*
X176530000Y-127000000D02*
X176530000Y-129540000D01*
X177800000Y-125730000D02*
X176530000Y-127000000D01*
X179860500Y-126520500D02*
X179860500Y-129429070D01*
X179070000Y-125730000D02*
X179860500Y-126520500D01*
X177800000Y-125730000D02*
X179070000Y-125730000D01*
X193675000Y-130810000D02*
X198755000Y-130810000D01*
X192405000Y-132080000D02*
X193675000Y-130810000D01*
X189865000Y-132080000D02*
X192405000Y-132080000D01*
X188595000Y-130810000D02*
X189865000Y-132080000D01*
X187325000Y-130810000D02*
X188595000Y-130810000D01*
X186210500Y-131924500D02*
X187325000Y-130810000D01*
X180340000Y-131924500D02*
X186210500Y-131924500D01*
X179860500Y-131445000D02*
X180340000Y-131924500D01*
%TO.N,/GC0*%
X191135000Y-120650000D02*
X179070000Y-120650000D01*
X172720000Y-129540000D02*
X172085000Y-130175000D01*
X172720000Y-127000000D02*
X172720000Y-129540000D01*
X172085000Y-130175000D02*
X167005000Y-130175000D01*
X175895000Y-126365000D02*
X173355000Y-126365000D01*
X173355000Y-126365000D02*
X172720000Y-127000000D01*
X176403000Y-125857000D02*
X175895000Y-126365000D01*
X176911000Y-120650000D02*
X176403000Y-121158000D01*
X176403000Y-121158000D02*
X176403000Y-125857000D01*
X177800000Y-120650000D02*
X176911000Y-120650000D01*
X179070000Y-120650000D02*
X177800000Y-120650000D01*
X177800000Y-119380000D02*
X177800000Y-120650000D01*
%TO.N,/GC2*%
X164465000Y-133805000D02*
X165555000Y-132715000D01*
X164465000Y-136979998D02*
X164465000Y-133805000D01*
X198755000Y-137160000D02*
X198210001Y-137704999D01*
X165555000Y-132715000D02*
X167005000Y-132715000D01*
X165190001Y-137704999D02*
X164465000Y-136979998D01*
X198755000Y-135890000D02*
X198755000Y-137160000D01*
X177800000Y-132080000D02*
X179070000Y-132080000D01*
X179070000Y-132080000D02*
X179705000Y-132715000D01*
X179705000Y-132715000D02*
X179705000Y-137160000D01*
X179160001Y-137704999D02*
X165190001Y-137704999D01*
X179705000Y-137160000D02*
X179160001Y-137704999D01*
X198210001Y-137704999D02*
X179160001Y-137704999D01*
%TO.N,/P1_DOWN*%
X204470000Y-113030000D02*
X204470000Y-114554000D01*
X180848010Y-117475010D02*
X180848010Y-115315990D01*
X181425011Y-118052011D02*
X180848010Y-117475010D01*
X192043971Y-118052011D02*
X181425011Y-118052011D01*
X195541982Y-114554000D02*
X192043971Y-118052011D01*
X204470000Y-114554000D02*
X195541982Y-114554000D01*
X180975000Y-102235000D02*
X182245000Y-103505000D01*
X180848010Y-107441990D02*
X182245000Y-106045000D01*
X180848010Y-112141010D02*
X180848010Y-107441990D01*
X182245000Y-103505000D02*
X182245000Y-106045000D01*
%TO.N,/P1_LEFT*%
X187960000Y-122555000D02*
X188595000Y-122555000D01*
X188595000Y-122555000D02*
X189230000Y-123190000D01*
X189230000Y-123190000D02*
X191135000Y-123190000D01*
X179705000Y-115570000D02*
X179705000Y-118745000D01*
X180340000Y-119380000D02*
X183896000Y-119380000D01*
X179705000Y-118745000D02*
X180340000Y-119380000D01*
X187960000Y-119380000D02*
X183896000Y-119380000D01*
X178435000Y-102235000D02*
X179705000Y-103505000D01*
X179705000Y-103505000D02*
X179705000Y-112141018D01*
%TO.N,/P2_UP*%
X198755000Y-133350000D02*
X196849986Y-133350000D01*
X187960000Y-135255000D02*
X188595000Y-134620000D01*
X193675000Y-133350000D02*
X192405000Y-134620000D01*
X196849986Y-133350000D02*
X193675000Y-133350000D01*
X188595000Y-134620000D02*
X192405000Y-134620000D01*
X216535000Y-118110000D02*
X216535000Y-102870000D01*
X215900000Y-118745000D02*
X216535000Y-118110000D01*
X197485000Y-118745000D02*
X215900000Y-118745000D01*
X215900000Y-102235000D02*
X212725000Y-102235000D01*
X216535000Y-102870000D02*
X215900000Y-102235000D01*
X196940000Y-119290000D02*
X197485000Y-118745000D01*
X196940000Y-124460000D02*
X196940000Y-119290000D01*
%TO.N,/P2_DOWN*%
X217805000Y-128905000D02*
X217170000Y-128905000D01*
X217170000Y-128905000D02*
X216535000Y-128270000D01*
X216535000Y-128270000D02*
X216535000Y-123825000D01*
X215900000Y-123190000D02*
X213995000Y-123190000D01*
X216535000Y-123825000D02*
X215900000Y-123190000D01*
X212090000Y-107315000D02*
X211455000Y-106680000D01*
X212090000Y-118020000D02*
X212090000Y-107315000D01*
X210185000Y-102235000D02*
X211455000Y-103505000D01*
X211455000Y-103505000D02*
X211455000Y-106680000D01*
%TO.N,/P2_LEFT*%
X187960000Y-128905000D02*
X189230000Y-128905000D01*
X189230000Y-128905000D02*
X189865000Y-129540000D01*
X198755000Y-128270000D02*
X193675000Y-128270000D01*
X193675000Y-128270000D02*
X192405000Y-129540000D01*
X192405000Y-129540000D02*
X189865000Y-129540000D01*
X196850000Y-125730000D02*
X196850000Y-127000000D01*
X196215000Y-125095000D02*
X196850000Y-125730000D01*
X196215000Y-118745000D02*
X196215000Y-125095000D01*
X207645000Y-102235000D02*
X207645000Y-101600000D01*
X206465001Y-117384999D02*
X205740000Y-118110000D01*
X207645000Y-101600000D02*
X207010000Y-100965000D01*
X207010000Y-100965000D02*
X204470000Y-100965000D01*
X206456399Y-111206399D02*
X206456399Y-114197397D01*
X206456399Y-114197397D02*
X206465001Y-114205999D01*
X204470000Y-100965000D02*
X203835000Y-101600000D01*
X203835000Y-109855000D02*
X204470000Y-110490000D01*
X203835000Y-101600000D02*
X203835000Y-109855000D01*
X196850000Y-118110000D02*
X196215000Y-118745000D01*
X204470000Y-110490000D02*
X205740000Y-110490000D01*
X205740000Y-110490000D02*
X206456399Y-111206399D01*
X206465001Y-114205999D02*
X206465001Y-117384999D01*
X205740000Y-118110000D02*
X196850000Y-118110000D01*
%TO.N,/P2_RIGHT*%
X215265000Y-128270000D02*
X213995000Y-128270000D01*
X215900000Y-128905000D02*
X215265000Y-128270000D01*
X215328500Y-137668000D02*
X215900000Y-137096500D01*
X203073000Y-137668000D02*
X215328500Y-137668000D01*
X215900000Y-137096500D02*
X215900000Y-128905000D01*
X202565000Y-137160000D02*
X203073000Y-137668000D01*
X202565000Y-136525000D02*
X202565000Y-137160000D01*
X206375000Y-103505000D02*
X205105000Y-102235000D01*
X206375000Y-106680000D02*
X206375000Y-103505000D01*
X207190000Y-107495000D02*
X206375000Y-106680000D01*
X210820000Y-107495000D02*
X207190000Y-107495000D01*
X211365000Y-108040000D02*
X210820000Y-107495000D01*
X211365000Y-116840000D02*
X211365000Y-108040000D01*
%TO.N,Net-(U1-Pad2)*%
X211674002Y-123190000D02*
X206375000Y-123190000D01*
X212180002Y-125443002D02*
X212180002Y-123696000D01*
X211545001Y-131354999D02*
X211545001Y-126078003D01*
X212180002Y-123696000D02*
X211674002Y-123190000D01*
X211545001Y-126078003D02*
X212180002Y-125443002D01*
X210820000Y-132080000D02*
X211545001Y-131354999D01*
X204470000Y-131445000D02*
X205105000Y-132080000D01*
X205105000Y-132080000D02*
X210820000Y-132080000D01*
X202565000Y-131445000D02*
X204470000Y-131445000D01*
X200660000Y-129540000D02*
X202565000Y-131445000D01*
X193855000Y-129540000D02*
X200660000Y-129540000D01*
X192585000Y-130810000D02*
X193855000Y-129540000D01*
X191135000Y-130810000D02*
X192585000Y-130810000D01*
%TO.N,Net-(U1-Pad10)*%
X205105000Y-129540000D02*
X210820000Y-129540000D01*
X200660000Y-127635000D02*
X203200000Y-127635000D01*
X198755000Y-125730000D02*
X200660000Y-127635000D01*
X203200000Y-127635000D02*
X205105000Y-129540000D01*
%TO.N,Net-(U1-Pad4)*%
X200025000Y-123190000D02*
X198755000Y-123190000D01*
X200660000Y-123825000D02*
X200025000Y-123190000D01*
X201295000Y-127000000D02*
X200660000Y-126365000D01*
X203835000Y-127000000D02*
X201295000Y-127000000D01*
X205105000Y-128270000D02*
X203835000Y-127000000D01*
X200660000Y-126365000D02*
X200660000Y-123825000D01*
X206375000Y-128270000D02*
X205105000Y-128270000D01*
%TO.N,Net-(U1-Pad12)*%
X200025000Y-132080000D02*
X193675000Y-132080000D01*
X192405000Y-133350000D02*
X191135000Y-133350000D01*
X200660000Y-132715000D02*
X200025000Y-132080000D01*
X200660000Y-133985000D02*
X200660000Y-132715000D01*
X201295000Y-134620000D02*
X200660000Y-133985000D01*
X212090000Y-133985000D02*
X211455000Y-134620000D01*
X193675000Y-132080000D02*
X192405000Y-133350000D01*
X212090000Y-126365000D02*
X212090000Y-133985000D01*
X211455000Y-134620000D02*
X201295000Y-134620000D01*
X212725000Y-125730000D02*
X212090000Y-126365000D01*
X213995000Y-125730000D02*
X212725000Y-125730000D01*
%TO.N,/P1_RIGHT*%
X175895000Y-102235000D02*
X175895000Y-100965000D01*
X175895000Y-100965000D02*
X176374500Y-100485500D01*
X205740000Y-114935000D02*
X205269999Y-115405001D01*
X186690000Y-111760000D02*
X205105000Y-111760000D01*
X205740000Y-112395000D02*
X205740000Y-114935000D01*
X185830185Y-110900185D02*
X186690000Y-111760000D01*
X205269999Y-115405001D02*
X204470000Y-116205000D01*
X185830185Y-101375185D02*
X185830185Y-110900185D01*
X184940500Y-100485500D02*
X185830185Y-101375185D01*
X205105000Y-111760000D02*
X205740000Y-112395000D01*
X180819500Y-100485500D02*
X180975000Y-100485500D01*
X176374500Y-100485500D02*
X180819500Y-100485500D01*
X183515000Y-100485500D02*
X183670500Y-100485500D01*
X183670500Y-100485500D02*
X180819500Y-100485500D01*
X183670500Y-100485500D02*
X184940500Y-100485500D01*
%TO.N,/P1_UP*%
X183515000Y-102235000D02*
X184150000Y-102235000D01*
X184150000Y-102235000D02*
X184785000Y-102870000D01*
X184785000Y-102870000D02*
X184785000Y-115570000D01*
X185420000Y-116205000D02*
X187960000Y-116205000D01*
X184785000Y-115570000D02*
X185420000Y-116205000D01*
%TD*%
M02*
